<svg xmlns="http://www.w3.org/2000/svg" width="900" height="300">
        <rect width="900" height="300" fill="#f7fafc"/>
        <text x="450.0" y="25" text-anchor="middle" font-family="Arial" font-size="16" fill="#2d3748">原始值 - 球团矿：进口：库存：47个港口（周度）</text>
    <line x1="50" y1="50.0" x2="850" y2="50.0" stroke="#e2e8f0" stroke-width="1"/><text x="45" y="54.0" text-anchor="end" font-family="Arial" font-size="10" fill="#718096">803.20</text><line x1="50" y1="100.0" x2="850" y2="100.0" stroke="#e2e8f0" stroke-width="1"/><text x="45" y="104.0" text-anchor="end" font-family="Arial" font-size="10" fill="#718096">668.92</text><line x1="50" y1="150.0" x2="850" y2="150.0" stroke="#e2e8f0" stroke-width="1"/><text x="45" y="154.0" text-anchor="end" font-family="Arial" font-size="10" fill="#718096">534.64</text><line x1="50" y1="200.0" x2="850" y2="200.0" stroke="#e2e8f0" stroke-width="1"/><text x="45" y="204.0" text-anchor="end" font-family="Arial" font-size="10" fill="#718096">400.37</text><line x1="50" y1="250.0" x2="850" y2="250.0" stroke="#e2e8f0" stroke-width="1"/><text x="45" y="254.0" text-anchor="end" font-family="Arial" font-size="10" fill="#718096">266.09</text><path d="M 50.0,170.23607827074528 L 50.49906425452277,170.23607827074528 50.99812850904554,170.23607827074528 51.49719276356831,170.23607827074528 51.99625701809108,170.23607827074528 52.49532127261385,170.23607827074528 52.99438552713662,170.23607827074528 53.493449781659386,165.8757051628158 53.99251403618216,165.8757051628158 54.49157829070493,165.8757051628158 54.9906425452277,165.8757051628158 55.489706799750465,165.8757051628158 55.988771054273236,165.8757051628158 56.48783530879601,165.8757051628158 56.98689956331878,170.24352553480665 57.48596381784155,170.24352553480665 57.985028072364315,170.24352553480665 58.48409232688709,170.24352553480665 58.98315658140986,170.24352553480665 59.48222083593262,170.24352553480665 59.981285090455394,170.24352553480665 60.480349344978166,172.15747239857757 60.97941359950094,172.15747239857757 61.47847785402371,172.15747239857757 61.97754210854647,172.15747239857757 62.476606363069244,172.15747239857757 62.975670617592016,172.15747239857757 63.47473487211479,172.15747239857757 63.97379912663756,165.29854219805998 64.47286338116032,165.29854219805998 64.9719276356831,165.29854219805998 65.47099189020587,165.29854219805998 65.97005614472863,165.29854219805998 66.46912039925141,165.29854219805998 66.96818465377417,165.29854219805998 67.46724890829694,173.3117983280892 67.96631316281972,173.3117983280892 68.46537741734248,173.3117983280892 68.96444167186525,173.3117983280892 69.46350592638802,173.3117983280892 69.96257018091079,173.3117983280892 70.46163443543357,173.3117983280892 70.96069868995633,174.01184114985756 71.45976294447911,174.01184114985756 71.95882719900187,174.01184114985756 72.45789145352464,174.01184114985756 72.95695570804742,174.01184114985756 73.45601996257018,174.01184114985756 73.95508421709295,174.01184114985756 74.45414847161572,165.68952356128167 74.95321272613849,165.68952356128167 75.45227698066125,165.68952356128167 75.95134123518403,165.68952356128167 76.4504054897068,165.68952356128167 76.94946974422957,165.68952356128167 77.44853399875234,165.68952356128167 77.94759825327512,166.96672934780585 78.44666250779788,166.96672934780585 78.94572676232065,166.96672934780585 79.44479101684342,166.96672934780585 79.94385527136619,166.96672934780585 80.44291952588895,166.96672934780585 80.94198378041173,166.96672934780585 81.4410480349345,153.11854182569678 81.94011228945726,153.11854182569678 82.43917654398004,153.11854182569678 82.9382407985028,153.11854182569678 83.43730505302557,153.11854182569678 83.93636930754835,153.11854182569678 84.43543356207113,153.11854182569678 84.93449781659389,150.92904619165535 85.43356207111665,150.92904619165535 85.93262632563943,150.92904619165535 86.4316905801622,150.92904619165535 86.93075483468496,150.92904619165535 87.42981908920774,150.92904619165535 87.9288833437305,150.92904619165535 88.42794759825327,150.68701010966095 88.92701185277605,150.68701010966095 89.42607610729881,150.68701010966095 89.92514036182158,150.68701010966095 90.42420461634435,150.68701010966095 90.92326887086713,150.68701010966095 91.42233312538988,150.68701010966095 91.92139737991266,149.28692446612428 92.42046163443544,149.28692446612428 92.9195258889582,149.28692446612428 93.41859014348097,149.28692446612428 93.91765439800375,149.28692446612428 94.41671865252651,149.28692446612428 94.91578290704928,149.28692446612428 95.41484716157206,142.1412745992441 95.91391141609482,142.1412745992441 96.41297567061758,142.1412745992441 96.91203992514036,142.1412745992441 97.41110417966314,142.1412745992441 97.91016843418589,142.1412745992441 98.40923268870867,142.1412745992441 98.90829694323145,140.6332036268176 99.40736119775421,140.6332036268176 99.90642545227698,140.6332036268176 100.40548970679976,140.6332036268176 100.90455396132252,140.6332036268176 101.40361821584528,140.6332036268176 101.90268247036806,140.6332036268176 102.40174672489083,132.53802759211334 102.90081097941359,132.53802759211334 103.39987523393637,132.53802759211334 103.89893948845915,132.53802759211334 104.3980037429819,132.53802759211334 104.89706799750468,132.53802759211334 105.39613225202746,132.53802759211334 105.89519650655022,138.5479696896353 106.39426076107299,138.5479696896353 106.89332501559576,138.5479696896353 107.39238927011853,138.5479696896353 107.89145352464129,138.5479696896353 108.39051777916407,138.5479696896353 108.88958203368684,138.5479696896353 109.3886462882096,137.02128055705535 109.88771054273238,137.02128055705535 110.38677479725516,137.02128055705535 110.88583905177791,137.02128055705535 111.38490330630069,137.02128055705535 111.88396756082346,137.02128055705535 112.38303181534623,137.02128055705535 112.882096069869,128.6058721677124 113.38116032439177,128.6058721677124 113.88022457891454,128.6058721677124 114.3792888334373,128.6058721677124 114.87835308796008,128.6058721677124 115.37741734248284,128.6058721677124 115.87648159700561,128.6058721677124 116.37554585152839,133.55830276852043 116.87461010605115,133.55830276852043 117.37367436057393,133.55830276852043 117.8727386150967,133.55830276852043 118.37180286961946,133.55830276852043 118.87086712414224,133.55830276852043 119.369931378665,133.55830276852043 119.86899563318778,139.6650592988401 120.36805988771054,139.6650592988401 120.86712414223331,139.6650592988401 121.36618839675609,139.6650592988401 121.86525265127885,139.6650592988401 122.36431690580162,139.6650592988401 122.8633811603244,139.6650592988401 123.36244541484716,126.96002681015062 123.86150966936994,126.96002681015062 124.3605739238927,126.96002681015062 124.85963817841547,126.96002681015062 125.35870243293824,126.96002681015062 125.85776668746101,126.96002681015062 126.35683094198379,126.96002681015062 126.85589519650655,133.35722663886352 127.35495945102932,133.35722663886352 127.8540237055521,133.35722663886352 128.35308796007484,133.35722663886352 128.85215221459762,133.35722663886352 129.3512164691204,133.35722663886352 129.85028072364315,133.35722663886352 130.34934497816596,135.1259518534378 130.8484092326887,135.1259518534378 131.34747348721146,135.1259518534378 131.84653774173427,135.1259518534378 132.34560199625702,135.1259518534378 132.84466625077977,135.1259518534378 133.34373050530257,135.1259518534378 133.84279475982532,122.96084600919738 134.3418590143481,122.96084600919738 134.84092326887088,122.96084600919738 135.33998752339363,122.96084600919738 135.8390517779164,122.96084600919738 136.3381160324392,122.96084600919738 136.83718028696194,122.96084600919738 137.33624454148472,120.67453594235819 137.8353087960075,120.67453594235819 138.33437305053025,120.67453594235819 138.83343730505302,120.67453594235819 139.3325015595758,120.67453594235819 139.83156581409855,120.67453594235819 140.33063006862133,120.67453594235819 140.8296943231441,116.80568226247884 141.32875857766686,116.80568226247884 141.82782283218964,116.80568226247884 142.32688708671242,116.80568226247884 142.82595134123517,116.80568226247884 143.32501559575798,116.80568226247884 143.82407985028073,116.80568226247884 144.32314410480348,123.21777661931446 144.82220835932628,123.21777661931446 145.32127261384903,123.21777661931446 145.82033686837178,123.21777661931446 146.3194011228946,123.21777661931446 146.81846537741734,123.21777661931446 147.31752963194012,123.21777661931446 147.8165938864629,119.44946100426354 148.31565814098565,119.44946100426354 148.81472239550843,119.44946100426354 149.3137866500312,119.44946100426354 149.81285090455395,119.44946100426354 150.31191515907673,119.44946100426354 150.8109794135995,119.44946100426354 151.31004366812226,124.1226192027704 151.80910792264504,124.1226192027704 152.30817217716782,124.1226192027704 152.80723643169057,124.1226192027704 153.30630068621335,124.1226192027704 153.80536494073613,124.1226192027704 154.30442919525888,124.1226192027704 154.80349344978166,118.59674926923721 155.30255770430443,118.59674926923721 155.80162195882718,118.59674926923721 156.30068621334996,118.59674926923721 156.79975046787274,118.59674926923721 157.2988147223955,118.59674926923721 157.7978789769183,118.59674926923721 158.29694323144105,116.18755934538547 158.7960074859638,116.18755934538547 159.2950717404866,116.18755934538547 159.79413599500936,116.18755934538547 160.29320024953213,116.18755934538547 160.7922645040549,116.18755934538547 161.29132875857766,116.18755934538547 161.79039301310044,112.95172311072221 162.28945726762322,112.95172311072221 162.78852152214597,112.95172311072221 163.28758577666875,112.95172311072221 163.78665003119153,112.95172311072221 164.28571428571428,112.95172311072221 164.78477854023706,112.95172311072221 165.28384279475983,105.91405857273185 165.78290704928258,105.91405857273185 166.28197130380536,105.91405857273185 166.78103555832814,105.91405857273185 167.2800998128509,105.91405857273185 167.77916406737367,105.91405857273185 168.27822832189645,105.91405857273185 168.7772925764192,95.6219396399248 169.27635683094198,95.6219396399248 169.77542108546476,95.6219396399248 170.2744853399875,95.6219396399248 170.7735495945103,95.6219396399248 171.27261384903306,95.6219396399248 171.77167810355581,95.6219396399248 172.27074235807862,99.66208039321553 172.76980661260137,99.66208039321553 173.26887086712412,99.66208039321553 173.76793512164693,99.66208039321553 174.26699937616968,99.66208039321553 174.76606363069246,99.66208039321553 175.26512788521524,99.66208039321553 175.764192139738,95.22723464467242 176.26325639426076,95.22723464467242 176.76232064878354,95.22723464467242 177.2613849033063,95.22723464467242 177.76044915782907,95.22723464467242 178.25951341235185,95.22723464467242 178.7585776668746,95.22723464467242 179.25764192139738,99.62112044087803 179.75670617592016,99.62112044087803 180.2557704304429,99.62112044087803 180.7548346849657,99.62112044087803 181.25389893948847,99.62112044087803 181.75296319401122,99.62112044087803 182.252027448534,99.62112044087803 182.75109170305677,101.90743050771725 183.25015595757955,101.90743050771725 183.7492202121023,101.90743050771725 184.24828446662508,101.90743050771725 184.74734872114786,101.90743050771725 185.2464129756706,101.90743050771725 185.7454772301934,101.90743050771725 186.24454148471617,101.95956135614679 186.74360573923892,101.95956135614679 187.2426699937617,101.95956135614679 187.74173424828447,101.95956135614679 188.24079850280722,101.95956135614679 188.73986275733,101.95956135614679 189.23892701185278,101.95956135614679 189.73799126637556,108.70305896371323 190.2370555208983,108.70305896371323 190.7361197754211,108.70305896371323 191.23518402994387,108.70305896371323 191.73424828446662,108.70305896371323 192.2333125389894,108.70305896371323 192.73237679351217,108.70305896371323 193.23144104803492,114.32201969801342 193.7305053025577,114.32201969801342 194.22956955708048,114.32201969801342 194.72863381160323,114.32201969801342 195.227698066126,114.32201969801342 195.7267623206488,114.32201969801342 196.22582657517157,114.32201969801342 196.72489082969432,115.88966878293087 197.2239550842171,115.88966878293087 197.72301933873987,115.88966878293087 198.22208359326262,115.88966878293087 198.7211478477854,115.88966878293087 199.22021210230818,115.88966878293087 199.71927635683093,115.88966878293087 200.2183406113537,110.73243842043529 200.7174048658765,110.73243842043529 201.21646912039924,110.73243842043529 201.71553337492202,110.73243842043529 202.2145976294448,110.73243842043529 202.71366188396757,110.73243842043529 203.21272613849032,110.73243842043529 203.7117903930131,119.43754538176537 204.21085464753588,119.43754538176537 204.70991890205863,119.43754538176537 205.2089831565814,119.43754538176537 205.7080474111042,119.43754538176537 206.20711166562694,119.43754538176537 206.70617592014972,119.43754538176537 207.2052401746725,115.4279384111262 207.70430442919525,115.4279384111262 208.20336868371803,115.4279384111262 208.7024329382408,115.4279384111262 209.20149719276355,115.4279384111262 209.70056144728633,115.4279384111262 210.1996257018091,115.4279384111262 210.6986899563319,123.41140548490999 211.19775421085464,123.41140548490999 211.69681846537742,123.41140548490999 212.1958827199002,123.41140548490999 212.69494697442295,123.41140548490999 213.19401122894573,123.41140548490999 213.6930754834685,123.41140548490999 214.19213973799125,112.08039321554244 214.69120399251403,112.08039321554244 215.1902682470368,112.08039321554244 215.68933250155956,112.08039321554244 216.18839675608234,112.08039321554244 216.68746101060512,112.08039321554244 217.1865252651279,112.08039321554244 217.68558951965065,113.23099551302342 218.18465377417343,113.23099551302342 218.6837180286962,113.23099551302342 219.18278228321896,113.23099551302342 219.68184653774173,113.23099551302342 220.1809107922645,113.23099551302342 220.67997504678726,113.23099551302342 221.17903930131004,116.15404665710936 221.67810355583282,116.15404665710936 222.17716781035557,116.15404665710936 222.67623206487835,116.15404665710936 223.17529631940113,116.15404665710936 223.6743605739239,116.15404665710936 224.17342482844666,116.15404665710936 224.67248908296943,112.76926514121874 225.1715533374922,112.76926514121874 225.67061759201496,112.76926514121874 226.16968184653774,112.76926514121874 226.66874610106052,112.76926514121874 227.16781035558327,112.76926514121874 227.66687461010605,112.76926514121874 228.16593886462883,112.70223976466647 228.66500311915158,112.70223976466647 229.16406737367436,112.70223976466647 229.66313162819714,112.70223976466647 230.1621958827199,112.70223976466647 230.66126013724266,112.70223976466647 231.16032439176544,112.70223976466647 231.65938864628822,118.86857440747706 232.15845290081097,118.86857440747706 232.65751715533375,118.86857440747706 233.15658140985653,118.86857440747706 233.65564566437928,118.86857440747706 234.15470991890206,118.86857440747706 234.65377417342484,118.86857440747706 235.1528384279476,117.08495466478004 235.65190268247036,117.08495466478004 236.15096693699314,117.08495466478004 236.65003119151592,117.08495466478004 237.14909544603867,117.08495466478004 237.64815970056145,117.08495466478004 238.14722395508423,117.08495466478004 238.64628820960698,118.5073821005008 239.14535246412976,118.5073821005008 239.64441671865254,118.5073821005008 240.1434809731753,118.5073821005008 240.64254522769806,118.5073821005008 241.14160948222084,118.5073821005008 241.6406737367436,118.5073821005008 242.13973799126637,111.40641581798889 242.63880224578915,111.40641581798889 243.1378665003119,111.40641581798889 243.63693075483468,111.40641581798889 244.13599500935746,111.40641581798889 244.63505926388024,111.40641581798889 245.134123518403,111.40641581798889 245.63318777292577,101.17015136564206 246.13225202744854,101.17015136564206 246.6313162819713,101.17015136564206 247.13038053649407,101.17015136564206 247.62944479101685,101.17015136564206 248.1285090455396,101.17015136564206 248.62757330006238,101.17015136564206 249.12663755458516,92.40844519744562 249.6257018091079,92.40844519744562 250.1247660636307,92.40844519744562 250.62383031815347,92.40844519744562 251.12289457267624,92.40844519744562 251.621958827199,92.40844519744562 252.12102308172177,92.40844519744562 252.62008733624455,82.6190165887807 253.1191515907673,82.6190165887807 253.61821584529008,82.6190165887807 254.11728009981286,82.6190165887807 254.6163443543356,82.6190165887807 255.1154086088584,82.6190165887807 255.61447286338117,82.6190165887807 256.1135371179039,79.63638733220384 256.6126013724267,79.63638733220384 257.1116656269495,79.63638733220384 257.61072988147225,79.63638733220384 258.109794135995,79.63638733220384 258.60885839051775,79.63638733220384 259.10792264504056,79.63638733220384 259.6069868995633,76.9106886857441 260.1060511540861,76.9106886857441 260.60511540860887,76.9106886857441 261.1041796631316,76.9106886857441 261.60324391765437,76.9106886857441 262.1023081721772,76.9106886857441 262.6013724266999,76.9106886857441 263.10043668122273,73.51473627376146 263.5995009357455,73.51473627376146 264.09856519026823,73.51473627376146 264.597629444791,73.51473627376146 265.0966936993138,73.51473627376146 265.5957579538366,73.51473627376146 266.09482220835935,73.51473627376146 266.5938864628821,78.38152333786375 267.09295071740485,78.38152333786375 267.5920149719276,78.38152333786375 268.0910792264504,78.38152333786375 268.5901434809732,78.38152333786375 269.08920773549596,78.38152333786375 269.5882719900187,78.38152333786375 270.08733624454146,66.1047085327028 270.58640049906427,66.1047085327028 271.085464753587,66.1047085327028 271.5845290081098,66.1047085327028 272.0835932626326,66.1047085327028 272.5826575171553,66.1047085327028 273.0817217716781,66.1047085327028 273.5807860262009,66.34302098266653 274.07985028072363,66.34302098266653 274.57891453524644,66.34302098266653 275.0779787897692,66.34302098266653 275.57704304429194,66.34302098266653 276.0761072988147,66.34302098266653 276.5751715533375,66.34302098266653 277.07423580786025,54.06620617750556 277.57330006238305,54.06620617750556 278.0723643169058,54.06620617750556 278.57142857142856,54.06620617750556 279.0704928259513,54.06620617750556 279.5695570804741,54.06620617750556 280.0686213349969,54.06620617750556 280.56768558951967,54.64709277429205 281.0667498440424,54.64709277429205 281.56581409856517,54.64709277429205 282.0648783530879,54.64709277429205 282.5639426076107,54.64709277429205 283.06300686213353,54.64709277429205 283.5620711166563,54.64709277429205 284.06113537117903,50.0 284.5601996257018,50.0 285.0592638802246,50.0 285.55832813474734,50.0 286.05739238927015,50.0 286.5564566437929,50.0 287.05552089831565,50.0 287.5545851528384,54.08482433765896 288.0536494073612,54.08482433765896 288.55271366188396,54.08482433765896 289.05177791640676,54.08482433765896 289.5508421709295,54.08482433765896 290.04990642545226,54.08482433765896 290.548970679975,54.08482433765896 291.0480349344978,54.47208206884995 291.5470991890206,54.47208206884995 292.0461634435434,54.47208206884995 292.5452276980661,54.47208206884995 293.0442919525889,54.47208206884995 293.54335620711163,54.47208206884995 294.04242046163444,54.47208206884995 294.54148471615724,62.26564390906893 295.04054897068,62.26564390906893 295.53961322520274,62.26564390906893 296.0386774797255,62.26564390906893 296.53774173424824,62.26564390906893 297.03680598877105,62.26564390906893 297.53587024329386,62.26564390906893 298.0349344978166,60.78363836085719 298.53399875233936,60.78363836085719 299.0330630068621,60.78363836085719 299.5321272613849,60.78363836085719 300.03119151590766,60.78363836085719 300.5302557704305,60.78363836085719 301.0293200249532,60.78363836085719 301.528384279476,61.47995755059486 302.0274485339987,61.47995755059486 302.52651278852153,61.47995755059486 303.0255770430443,61.47995755059486 303.5246412975671,61.47995755059486 304.02370555208984,61.47995755059486 304.5227698066126,61.47995755059486 305.02183406113534,61.01077991472884 305.52089831565814,61.01077991472884 306.0199625701809,61.01077991472884 306.5190268247037,61.01077991472884 307.01809107922645,61.01077991472884 307.5171553337492,61.01077991472884 308.016219588272,61.01077991472884 308.51528384279476,62.27681480516096 309.0143480973175,62.27681480516096 309.5134123518403,62.27681480516096 310.01247660636307,62.27681480516096 310.5115408608858,62.27681480516096 311.0106051154086,62.27681480516096 311.5096693699314,62.27681480516096 312.0087336244541,60.50436595855599 312.50779787897693,60.50436595855599 313.0068621334997,60.50436595855599 313.50592638802243,60.50436595855599 314.00499064254524,60.50436595855599 314.504054897068,60.50436595855599 315.0031191515908,60.50436595855599 315.50218340611355,56.758392135689185 316.0012476606363,56.758392135689185 316.5003119151591,56.758392135689185 316.99937616968185,56.758392135689185 317.4984404242046,56.758392135689185 317.9975046787274,56.758392135689185 318.49656893325016,56.758392135689185 318.9956331877729,60.03146469065929 319.4946974422957,60.03146469065929 319.99376169681847,60.03146469065929 320.4928259513412,60.03146469065929 320.991890205864,60.03146469065929 321.4909544603868,60.03146469065929 321.9900187149095,60.03146469065929 322.48908296943233,67.22924540596901 322.9881472239551,67.22924540596901 323.48721147847783,67.22924540596901 323.98627573300064,67.22924540596901 324.4853399875234,67.22924540596901 324.98440424204614,67.22924540596901 325.48346849656895,67.22924540596901 325.9825327510917,78.56398130736721 326.48159700561445,78.56398130736721 326.98066126013725,78.56398130736721 327.47972551466,78.56398130736721 327.9787897691828,78.56398130736721 328.47785402370556,78.56398130736721 328.9769182782283,78.56398130736721 329.4759825327511,85.45642419616094 329.97504678727387,85.45642419616094 330.4741110417966,85.45642419616094 330.9731752963194,85.45642419616094 331.4722395508422,85.45642419616094 331.9713038053649,85.45642419616094 332.47036805988773,85.45642419616094 332.9694323144105,93.59628381523339 333.46849656893323,93.59628381523339 333.96756082345604,93.59628381523339 334.4666250779788,93.59628381523339 334.96568933250154,93.59628381523339 335.46475358702435,93.59628381523339 335.9638178415471,93.59628381523339 336.46288209606985,106.3795125765672 336.96194635059265,106.3795125765672 337.4610106051154,106.3795125765672 337.96007485963815,106.3795125765672 338.45913911416096,106.3795125765672 338.9582033686837,106.3795125765672 339.45726762320646,106.3795125765672 339.95633187772927,118.04565172869616 340.455396132252,118.04565172869616 340.95446038677477,118.04565172869616 341.4535246412976,118.04565172869616 341.9525888958203,118.04565172869616 342.45165315034313,118.04565172869616 342.9507174048659,118.04565172869616 343.44978165938863,124.3125244363352 343.94884591391144,124.3125244363352 344.4479101684342,124.3125244363352 344.94697442295694,124.3125244363352 345.44603867747975,124.3125244363352 345.9451029320025,124.3125244363352 346.44416718652525,124.3125244363352 346.94323144104806,131.12677105248457 347.4422956955708,131.12677105248457 347.94135995009356,131.12677105248457 348.44042420461636,131.12677105248457 348.9394884591391,131.12677105248457 349.43855271366186,131.12677105248457 349.93761696818467,131.12677105248457 350.4366812227074,139.84751726834355 350.93574547723017,139.84751726834355 351.434809731753,139.84751726834355 351.9338739862757,139.84751726834355 352.4329382407985,139.84751726834355 352.9320024953213,139.84751726834355 353.43106674984404,139.84751726834355 353.9301310043668,135.87812552363573 354.4291952588896,135.87812552363573 354.92825951341234,135.87812552363573 355.42732376793515,135.87812552363573 355.9263880224579,135.87812552363573 356.42545227698065,135.87812552363573 356.92451653150346,135.87812552363573 357.4235807860262,138.50328610526708 357.92264504054896,138.50328610526708 358.42170929507176,138.50328610526708 358.9207735495945,138.50328610526708 359.41983780411726,138.50328610526708 359.91890205864007,138.50328610526708 360.4179663131628,138.50328610526708 360.9170305676856,135.3717115674629 361.4160948222084,135.3717115674629 361.91515907673113,135.3717115674629 362.4142233312539,135.3717115674629 362.9132875857767,135.3717115674629 363.41235184029944,135.3717115674629 363.9114160948222,135.3717115674629 364.410480349345,142.74077935618402 364.90954460386774,142.74077935618402 365.4086088583905,142.74077935618402 365.9076731129133,142.74077935618402 366.40673736743605,142.74077935618402 366.9058016219588,142.74077935618402 367.4048658764816,142.74077935618402 367.90393013100436,134.15408389342963 368.4029943855271,134.15408389342963 368.9020586400499,134.15408389342963 369.40112289457267,134.15408389342963 369.9001871490955,134.15408389342963 370.3992514036182,134.15408389342963 370.898315658141,134.15408389342963 371.3973799126638,142.48757237809758 371.89644416718653,142.48757237809758 372.3955084217093,142.48757237809758 372.8945726762321,142.48757237809758 373.39363693075484,142.48757237809758 373.8927011852776,142.48757237809758 374.3917654398004,142.48757237809758 374.89082969432314,153.57282493344007 375.3898939488459,153.57282493344007 375.8889582033687,153.57282493344007 376.38802245789145,153.57282493344007 376.8870867124142,153.57282493344007 377.386150966937,153.57282493344007 377.88521522145976,153.57282493344007 378.3842794759825,153.57282493344007 378.8833437305053,153.57282493344007 379.38240798502807,153.57282493344007 379.8814722395508,153.57282493344007 380.3805364940736,153.57282493344007 380.8796007485964,153.57282493344007 381.3786650031191,153.57282493344007 381.87772925764193,170.2062892144998 382.3767935121647,170.2062892144998 382.8758577666875,170.2062892144998 383.37492202121024,170.2062892144998 383.873986275733,170.2062892144998 384.3730505302558,170.2062892144998 384.87211478477855,170.2062892144998 385.3711790393013,164.18145258885517 385.8702432938241,164.18145258885517 386.36930754834685,164.18145258885517 386.8683718028696,164.18145258885517 387.3674360573924,164.18145258885517 387.86650031191516,164.18145258885517 388.3655645664379,164.18145258885517 388.8646288209607,176.51039824244566 389.36369307548347,176.51039824244566 389.8627573300062,176.51039824244566 390.361821584529,176.51039824244566 390.8608858390518,176.51039824244566 391.3599500935745,176.51039824244566 391.85901434809733,176.51039824244566 392.3580786026201,184.50131258029077 392.85714285714283,184.50131258029077 393.35620711166564,184.50131258029077 393.8552713661884,184.50131258029077 394.35433562071114,184.50131258029077 394.85339987523395,184.50131258029077 395.3524641297567,184.50131258029077 395.8515283842795,186.25514326674238 396.35059263880225,186.25514326674238 396.849656893325,186.25514326674238 397.3487211478478,186.25514326674238 397.84778540237056,186.25514326674238 398.3468496568933,186.25514326674238 398.8459139114161,186.25514326674238 399.34497816593887,191.9374057455642 399.8440424204616,191.9374057455642 400.3431066749844,191.9374057455642 400.8421709295072,191.9374057455642 401.3412351840299,191.9374057455642 401.84029943855273,191.9374057455642 402.3393636930755,191.9374057455642 402.83842794759823,192.7826702165292 403.33749220212104,192.7826702165292 403.8365564566438,192.7826702165292 404.33562071116654,192.7826702165292 404.83468496568935,192.7826702165292 405.3337492202121,192.7826702165292 405.83281347473485,192.7826702165292 406.33187772925766,197.15049058852003 406.8309419837804,197.15049058852003 407.33000623830316,197.15049058852003 407.82907049282596,197.15049058852003 408.3281347473487,197.15049058852003 408.82719900187146,197.15049058852003 409.32626325639427,197.15049058852003 409.825327510917,188.21749734691218 410.3243917654398,188.21749734691218 410.8234560199626,188.21749734691218 411.3225202744853,188.21749734691218 411.82158452900813,188.21749734691218 412.3206487835309,188.21749734691218 412.81971303805364,188.21749734691218 413.31877729257644,186.67591368620953 413.8178415470992,186.67591368620953 414.31690580162194,186.67591368620953 414.81597005614475,186.67591368620953 415.3150343106675,186.67591368620953 415.81409856519025,186.67591368620953 416.31316281971306,186.67591368620953 416.8122270742358,179.3999366982555 417.31129132875856,179.3999366982555 417.81035558328136,179.3999366982555 418.3094198378041,179.3999366982555 418.80848409232686,179.3999366982555 419.30754834684967,179.3999366982555 419.8066126013724,179.3999366982555 420.3056768558952,168.88067621157677 420.804741110418,168.88067621157677 421.30380536494073,168.88067621157677 421.8028696194635,168.88067621157677 422.3019338739863,168.88067621157677 422.80099812850904,168.88067621157677 423.30006238303184,168.88067621157677 423.7991266375546,149.17149187317307 424.29819089207734,149.17149187317307 424.79725514660015,149.17149187317307 425.2963194011229,149.17149187317307 425.79538365564565,149.17149187317307 426.29444791016846,149.17149187317307 426.7935121646912,149.17149187317307 427.29257641921396,125.5040866861537 427.79164067373677,125.5040866861537 428.2907049282595,125.5040866861537 428.78976918278227,125.5040866861537 429.2888334373051,125.5040866861537 429.7878976918278,125.5040866861537 430.2869619463506,125.5040866861537 430.7860262008734,118.47014578019399 431.28509045539613,118.47014578019399 431.7841547099189,118.47014578019399 432.2832189644417,118.47014578019399 432.78228321896444,118.47014578019399 433.2813474734872,118.47014578019399 433.78041172801,118.47014578019399 434.27947598253274,105.91405857273185 434.7785402370555,105.91405857273185 435.2776044915783,105.91405857273185 435.77666874610105,105.91405857273185 436.2757330006238,105.91405857273185 436.7747972551466,105.91405857273185 437.27386150966936,105.91405857273185 437.77292576419217,90.02904432983931 438.2719900187149,90.02904432983931 438.77105427323767,90.02904432983931 439.2701185277605,90.02904432983931 439.7691827822832,90.02904432983931 440.268247036806,90.02904432983931 440.7673112913288,90.02904432983931 441.26637554585153,84.51806892442889 441.7654398003743,84.51806892442889 442.2645040548971,84.51806892442889 442.76356830941984,84.51806892442889 443.2626325639426,84.51806892442889 443.7616968184654,84.51806892442889 444.26076107298815,84.51806892442889 444.7598253275109,84.51806892442889 445.2588895820337,84.51806892442889 445.75795383655645,84.51806892442889 446.2570180910792,84.51806892442889 446.756082345602,84.51806892442889 447.25514660012476,84.51806892442889 447.7542108546475,84.51806892442889 448.2532751091703,71.91729813259855 448.75233936369307,71.91729813259855 449.2514036182158,71.91729813259855 449.7504678727386,71.91729813259855 450.2495321272614,71.91729813259855 450.7485963817842,71.91729813259855 451.24766063630693,71.91729813259855 451.7467248908297,69.48576641656273 452.2457891453525,69.48576641656273 452.74485339987524,69.48576641656273 453.243917654398,69.48576641656273 453.7429819089208,69.48576641656273 454.24204616344355,69.48576641656273 454.7411104179663,69.48576641656273 455.2401746724891,61.38314311779712 455.73923892701185,61.38314311779712 456.2383031815346,61.38314311779712 456.7373674360574,61.38314311779712 457.23643169058016,61.38314311779712 457.7354959451029,61.38314311779712 458.2345601996257,61.38314311779712 458.73362445414847,68.10057530114875 459.2326887086712,68.10057530114875 459.731752963194,68.10057530114875 460.2308172177168,68.10057530114875 460.7298814722395,68.10057530114875 461.22894572676233,68.10057530114875 461.7280099812851,68.10057530114875 462.22707423580783,70.01824579695034 462.72613849033064,70.01824579695034 463.2252027448534,70.01824579695034 463.7242669993762,70.01824579695034 464.22333125389895,70.01824579695034 464.7223955084217,70.01824579695034 465.2214597629445,70.01824579695034 465.72052401746726,60.910241849900416 466.21958827199,60.910241849900416 466.7186525265128,60.910241849900416 467.21771678103556,60.910241849900416 467.7167810355583,60.910241849900416 468.2158452900811,60.910241849900416 468.71490954460387,60.910241849900416 469.2139737991266,59.953268418014936 469.7130380536494,59.953268418014936 470.2121023081722,59.953268418014936 470.7111665626949,59.953268418014936 471.21023081721773,59.953268418014936 471.7092950717405,59.953268418014936 472.20835932626323,59.953268418014936 472.70742358078604,68.52506935264657 473.2064878353088,68.52506935264657 473.70555208983154,68.52506935264657 474.20461634435435,68.52506935264657 474.7036805988771,68.52506935264657 475.20274485339985,68.52506935264657 475.70180910792266,68.52506935264657 476.2008733624454,75.31325054458118 476.69993761696816,75.31325054458118 477.19900187149096,75.31325054458118 477.6980661260137,75.31325054458118 478.1971303805365,75.31325054458118 478.69619463505927,75.31325054458118 479.195258889582,75.31325054458118 479.6943231441048,67.41542700750315 480.1933873986276,67.41542700750315 480.69245165315033,67.41542700750315 481.19151590767314,67.41542700750315 481.6905801621959,67.41542700750315 482.18964441671864,67.41542700750315 482.68870867124144,67.41542700750315 483.1877729257642,67.41542700750315 483.68683718028694,67.41542700750315 484.18590143480975,67.41542700750315 484.6849656893325,67.41542700750315 485.18402994385525,67.41542700750315 485.68309419837806,67.41542700750315 486.1821584529008,67.41542700750315 486.68122270742356,74.66906220327307 487.18028696194636,74.66906220327307 487.6793512164691,74.66906220327307 488.17841547099187,74.66906220327307 488.6774797255147,74.66906220327307 489.1765439800374,74.66906220327307 489.6756082345602,74.66906220327307 490.174672489083,80.0981177040085 490.67373674360573,80.0981177040085 491.17280099812854,80.0981177040085 491.6718652526513,80.0981177040085 492.17092950717404,80.0981177040085 492.66999376169684,80.0981177040085 493.1690580162196,80.0981177040085 493.66812227074234,94.63890078382454 494.16718652526515,94.63890078382454 494.6662507797879,94.63890078382454 495.16531503431065,94.63890078382454 495.66437928883346,94.63890078382454 496.1634435433562,94.63890078382454 496.66250779787896,94.63890078382454 497.16157205240177,91.4589190296215 497.6606363069245,91.4589190296215 498.15970056144727,91.4589190296215 498.6587648159701,91.4589190296215 499.1578290704928,91.4589190296215 499.6568933250156,91.4589190296215 500.1559575795384,91.4589190296215 500.65502183406113,101.90370687568657 501.1540860885839,101.90370687568657 501.6531503431067,101.90370687568657 502.15221459762944,101.90370687568657 502.6512788521522,101.90370687568657 503.150343106675,101.90370687568657 503.64940736119775,101.90370687568657 504.1484716157205,103.92563906834727 504.6475358702433,103.92563906834727 505.14660012476605,103.92563906834727 505.64566437928886,103.92563906834727 506.1447286338116,103.92563906834727 506.64379288833436,103.92563906834727 507.14285714285717,103.92563906834727 507.6419213973799,101.22228221407161 508.14098565190267,101.22228221407161 508.6400499064255,101.22228221407161 509.1391141609482,101.22228221407161 509.638178415471,101.22228221407161 510.1372426699938,101.22228221407161 510.63630692451653,101.22228221407161 511.1353711790393,107.2210534155015 511.6344354335621,107.2210534155015 512.1334996880848,107.2210534155015 512.6325639426076,107.2210534155015 513.1316281971303,107.2210534155015 513.6306924516532,107.2210534155015 514.1297567061758,107.2210534155015 514.6288209606987,110.03611923069761 515.1278852152215,110.03611923069761 515.6269494697442,110.03611923069761 516.1260137242671,110.03611923069761 516.6250779787897,110.03611923069761 517.1241422333126,110.03611923069761 517.6232064878353,110.03611923069761 518.1222707423581,117.99724451229729 518.6213349968809,117.99724451229729 519.1203992514036,117.99724451229729 519.6194635059264,117.99724451229729 520.1185277604492,117.99724451229729 520.6175920149719,117.99724451229729 521.1166562694947,117.99724451229729 521.6157205240174,128.25212712479754 522.1147847785403,128.25212712479754 522.6138490330629,128.25212712479754 523.1129132875858,128.25212712479754 523.6119775421085,128.25212712479754 524.1110417966313,128.25212712479754 524.6101060511542,128.25212712479754 525.1091703056768,132.78006367410774 525.6082345601997,132.78006367410774 526.1072988147224,132.78006367410774 526.6063630692452,132.78006367410774 527.1054273237679,132.78006367410774 527.6044915782907,132.78006367410774 528.1035558328135,132.78006367410774 528.6026200873362,138.57775874588071 529.101684341859,138.57775874588071 529.6007485963818,138.57775874588071 530.0998128509045,138.57775874588071 530.5988771054274,138.57775874588071 531.09794135995,138.57775874588071 531.5970056144729,138.57775874588071 532.0960698689956,146.72878926104522 532.5951341235184,146.72878926104522 533.0941983780413,146.72878926104522 533.5932626325639,146.72878926104522 534.0923268870868,146.72878926104522 534.5913911416095,146.72878926104522 535.0904553961323,146.72878926104522 535.589519650655,140.77470164398355 536.0885839051778,140.77470164398355 536.5876481597006,140.77470164398355 537.0867124142233,140.77470164398355 537.5857766687461,140.77470164398355 538.0848409232689,140.77470164398355 538.5839051777916,140.77470164398355 539.0829694323145,142.45405968982146 539.5820336868371,142.45405968982146 540.08109794136,142.45405968982146 540.5801621958827,142.45405968982146 541.0792264504055,142.45405968982146 541.5782907049282,142.45405968982146 542.077354959451,142.45405968982146 542.5764192139738,142.21947087188846 543.0754834684965,142.21947087188846 543.5745477230194,142.21947087188846 544.0736119775421,142.21947087188846 544.5726762320649,142.21947087188846 545.0717404865877,142.21947087188846 545.5708047411104,142.21947087188846 546.0698689956332,138.3729589841932 546.568933250156,138.3729589841932 547.0679975046787,138.3729589841932 547.5670617592016,138.3729589841932 548.0661260137242,138.3729589841932 548.5651902682471,138.3729589841932 549.0642545227698,138.3729589841932 549.5633187772926,138.1718828545363 550.0623830318153,138.1718828545363 550.5614472863381,138.1718828545363 551.060511540861,138.1718828545363 551.5595757953836,138.1718828545363 552.0586400499064,138.1718828545363 552.5577043044292,138.1718828545363 553.056768558952,142.24553629610318 553.5558328134748,142.24553629610318 554.0548970679974,142.24553629610318 554.5539613225203,142.24553629610318 555.0530255770431,142.24553629610318 555.5520898315658,142.24553629610318 556.0511540860886,142.24553629610318 556.5502183406113,145.14252201597435 557.0492825951342,145.14252201597435 557.5483468496568,145.14252201597435 558.0474111041797,145.14252201597435 558.5464753587024,145.14252201597435 559.0455396132252,145.14252201597435 559.544603867748,145.14252201597435 560.0436681222707,145.14252201597435 560.5427323767935,145.14252201597435 561.0417966313163,145.14252201597435 561.540860885839,145.14252201597435 562.0399251403618,145.14252201597435 562.5389893948845,145.14252201597435 563.0380536494074,145.14252201597435 563.5371179039302,143.51157118653532 564.0361821584529,143.51157118653532 564.5352464129757,143.51157118653532 565.0343106674984,143.51157118653532 565.5333749220213,143.51157118653532 566.032439176544,143.51157118653532 566.5315034310668,143.51157118653532 567.0305676855895,143.10569529519094 567.5296319401123,143.10569529519094 568.028696194635,143.10569529519094 568.5277604491579,143.10569529519094 569.0268247036806,143.10569529519094 569.5258889582034,143.10569529519094 570.0249532127261,143.10569529519094 570.5240174672489,153.3531306436298 571.0230817217716,153.3531306436298 571.5221459762945,153.3531306436298 572.0212102308172,153.3531306436298 572.52027448534,153.3531306436298 573.0193387398627,153.3531306436298 573.5184029943855,153.3531306436298 574.0174672489082,157.27039153990802 574.5165315034311,157.27039153990802 575.0155957579539,157.27039153990802 575.5146600124766,157.27039153990802 576.0137242669994,157.27039153990802 576.5127885215221,157.27039153990802 577.0118527760449,157.27039153990802 577.5109170305677,166.34115916665115 578.0099812850905,166.34115916665115 578.5090455396132,166.34115916665115 579.008109794136,166.34115916665115 579.5071740486587,166.34115916665115 580.0062383031816,166.34115916665115 580.5053025577043,166.34115916665115 581.0043668122271,164.3266742380518 581.5034310667498,164.3266742380518 582.0024953212726,164.3266742380518 582.5015595757953,164.3266742380518 583.0006238303182,164.3266742380518 583.499688084841,164.3266742380518 583.9987523393637,164.3266742380518 584.4978165938865,171.69201839474223 584.9968808484092,171.69201839474223 585.495945102932,171.69201839474223 585.9950093574548,171.69201839474223 586.4940736119776,171.69201839474223 586.9931378665003,171.69201839474223 587.4922021210231,171.69201839474223 587.9912663755458,180.78512781366942 588.4903306300686,180.78512781366942 588.9893948845914,180.78512781366942 589.4884591391142,180.78512781366942 589.9875233936369,180.78512781366942 590.4865876481597,180.78512781366942 590.9856519026824,180.78512781366942 591.4847161572052,182.63204930088807 591.983780411728,182.63204930088807 592.4828446662508,182.63204930088807 592.9819089207735,182.63204930088807 593.4809731752963,182.63204930088807 593.980037429819,182.63204930088807 594.4791016843419,182.63204930088807 594.9781659388647,185.99821265662524 595.4772301933874,185.99821265662524 595.9762944479102,185.99821265662524 596.4753587024329,185.99821265662524 596.9744229569557,185.99821265662524 597.4734872114785,185.99821265662524 597.9725514660013,185.99821265662524 598.471615720524,192.05656197054606 598.9706799750468,192.05656197054606 599.4697442295695,192.05656197054606 599.9688084840923,192.05656197054606 600.4678727386151,192.05656197054606 600.9669369931379,192.05656197054606 601.4660012476606,192.05656197054606 601.9650655021834,190.7458434957457 602.4641297567061,190.7458434957457 602.9631940112289,190.7458434957457 603.4622582657518,190.7458434957457 603.9613225202745,190.7458434957457 604.4603867747973,190.7458434957457 604.95945102932,190.7458434957457 605.4585152838428,190.33624397237065 605.9575795383656,190.33624397237065 606.4566437928884,190.33624397237065 606.9557080474111,190.33624397237065 607.4547723019339,190.33624397237065 607.9538365564566,190.33624397237065 608.4529008109794,190.33624397237065 608.9519650655022,190.70115991137754 609.451029320025,190.70115991137754 609.9500935745477,190.70115991137754 610.4491578290705,190.70115991137754 610.9482220835932,190.70115991137754 611.447286338116,190.70115991137754 611.9463505926389,190.70115991137754 612.4454148471616,203.6035448976932 612.9444791016844,203.6035448976932 613.4435433562071,203.6035448976932 613.9426076107299,203.6035448976932 614.4416718652526,203.6035448976932 614.9407361197755,203.6035448976932 615.4398003742982,203.6035448976932 615.938864628821,192.5369105025041 616.4379288833437,192.5369105025041 616.9369931378665,192.5369105025041 617.4360573923892,192.5369105025041 617.9351216469121,192.5369105025041 618.4341859014348,192.5369105025041 618.9332501559576,192.5369105025041 619.4323144104803,192.5369105025041 619.9313786650031,192.5369105025041 620.430442919526,192.5369105025041 620.9295071740487,192.5369105025041 621.4285714285714,192.5369105025041 621.9276356830942,192.5369105025041 622.426699937617,192.5369105025041 622.9257641921397,187.64778164621768 623.4248284466626,187.64778164621768 623.9238927011853,187.64778164621768 624.4229569557081,187.64778164621768 624.9220212102308,187.64778164621768 625.4210854647536,187.64778164621768 625.9201497192763,187.64778164621768 626.4192139737992,171.31593155964327 626.9182782283219,171.31593155964327 627.4173424828447,171.31593155964327 627.9164067373674,171.31593155964327 628.4154709918902,171.31593155964327 628.9145352464129,171.31593155964327 629.4135995009358,171.31593155964327 629.9126637554585,181.41069799482412 630.4117280099813,181.41069799482412 630.910792264504,181.41069799482412 631.4098565190268,181.41069799482412 631.9089207735495,181.41069799482412 632.4079850280724,181.41069799482412 632.9070492825952,181.41069799482412 633.4061135371179,181.67135223697193 633.9051777916407,181.67135223697193 634.4042420461634,181.67135223697193 634.9033063006863,181.67135223697193 635.402370555209,181.67135223697193 635.9014348097318,181.67135223697193 636.4004990642545,181.67135223697193 636.8995633187773,182.40118411498574 637.3986275733,182.40118411498574 637.8976918278229,182.40118411498574 638.3967560823456,182.40118411498574 638.8958203368684,182.40118411498574 639.3948845913911,182.40118411498574 639.8939488459139,182.40118411498574 640.3930131004366,181.03088752769452 640.8920773549595,181.03088752769452 641.3911416094822,181.03088752769452 641.890205864005,181.03088752769452 642.3892701185277,181.03088752769452 642.8883343730505,181.03088752769452 643.3873986275732,181.03088752769452 643.8864628820961,179.18768967250656 644.3855271366189,179.18768967250656 644.8845913911416,179.18768967250656 645.3836556456644,179.18768967250656 645.8827199001871,179.18768967250656 646.3817841547099,179.18768967250656 646.8808484092327,179.18768967250656 647.3799126637555,162.61752713596843 647.8789769182782,162.61752713596843 648.378041172801,162.61752713596843 648.8771054273237,162.61752713596843 649.3761696818466,162.61752713596843 649.8752339363693,162.61752713596843 650.3742981908921,162.61752713596843 650.8733624454148,156.54800692595558 651.3724266999376,156.54800692595558 651.8714909544603,156.54800692595558 652.3705552089832,156.54800692595558 652.869619463506,156.54800692595558 653.3686837180287,156.54800692595558 653.8677479725515,156.54800692595558 654.3668122270742,158.30183761240713 654.865876481597,158.30183761240713 655.3649407361198,158.30183761240713 655.8640049906426,158.30183761240713 656.3630692451653,158.30183761240713 656.8621334996881,158.30183761240713 657.3611977542108,158.30183761240713 657.8602620087336,145.7494740369757 658.3593262632564,145.7494740369757 658.8583905177792,145.7494740369757 659.3574547723019,145.7494740369757 659.8565190268247,145.7494740369757 660.3555832813474,145.7494740369757 660.8546475358703,145.7494740369757 661.353711790393,142.90834279756473 661.8527760449158,142.90834279756473 662.3518402994385,142.90834279756473 662.8509045539613,142.90834279756473 663.349968808484,142.90834279756473 663.8490330630069,142.90834279756473 664.3480973175297,142.90834279756473 664.8471615720524,139.31131425592523 665.3462258265752,139.31131425592523 665.8452900810979,139.31131425592523 666.3443543356207,139.31131425592523 666.8434185901435,139.31131425592523 667.3424828446663,139.31131425592523 667.841547099189,139.31131425592523 668.3406113537118,141.4710208337212 668.8396756082345,141.4710208337212 669.3387398627573,141.4710208337212 669.8378041172801,141.4710208337212 670.3368683718029,141.4710208337212 670.8359326263256,141.4710208337212 671.3349968808484,141.4710208337212 671.8340611353711,144.52067546685038 672.3331253898939,144.52067546685038 672.8321896444168,144.52067546685038 673.3312538989395,144.52067546685038 673.8303181534623,144.52067546685038 674.329382407985,144.52067546685038 674.8284466625078,144.52067546685038 675.3275109170306,149.24596451378676 675.8265751715534,149.24596451378676 676.3256394260761,149.24596451378676 676.8247036805989,149.24596451378676 677.3237679351216,149.24596451378676 677.8228321896444,149.24596451378676 678.3218964441672,149.24596451378676 678.82096069869,154.20211874662544 679.3200249532127,154.20211874662544 679.8190892077355,154.20211874662544 680.3181534622582,154.20211874662544 680.817217716781,154.20211874662544 681.3162819713039,154.20211874662544 681.8153462258266,154.20211874662544 682.3144104803494,152.97704380853082 682.8134747348721,152.97704380853082 683.3125389893949,152.97704380853082 683.8116032439176,152.97704380853082 684.3106674984405,152.97704380853082 684.8097317529632,152.97704380853082 685.308796007486,152.97704380853082 685.8078602620087,154.55586378954033 686.3069245165315,154.55586378954033 686.8059887710542,154.55586378954033 687.3050530255771,154.55586378954033 687.8041172800998,154.55586378954033 688.3031815346226,154.55586378954033 688.8022457891453,154.55586378954033 689.3013100436681,158.02628884213658 689.800374298191,158.02628884213658 690.2994385527137,158.02628884213658 690.7985028072364,158.02628884213658 691.2975670617592,158.02628884213658 691.796631316282,158.02628884213658 692.2956955708047,158.02628884213658 692.7947598253276,165.5740909683305 693.2938240798503,165.5740909683305 693.7928883343731,165.5740909683305 694.2919525888958,165.5740909683305 694.7910168434186,165.5740909683305 695.2900810979413,165.5740909683305 695.7891453524642,165.5740909683305 696.2882096069869,165.51823648787024 696.7872738615097,165.51823648787024 697.2863381160324,165.51823648787024 697.7854023705552,165.51823648787024 698.2844666250779,165.51823648787024 698.7835308796008,165.51823648787024 699.2825951341235,165.51823648787024 699.7816593886463,178.71851203664053 700.280723643169,178.71851203664053 700.7797878976918,178.71851203664053 701.2788521522147,178.71851203664053 701.7779164067374,178.71851203664053 702.2769806612602,178.71851203664053 702.7760449157829,178.71851203664053 703.2751091703057,190.32507307627856 703.7741734248284,190.32507307627856 704.2732376793513,190.32507307627856 704.772301933874,190.32507307627856 705.2713661883968,190.32507307627856 705.7704304429195,190.32507307627856 706.2694946974423,190.32507307627856 706.768558951965,201.14594775744257 707.2676232064879,201.14594775744257 707.7666874610106,201.14594775744257 708.2657517155334,201.14594775744257 708.7648159700561,201.14594775744257 709.2638802245789,201.14594775744257 709.7629444791016,201.14594775744257 710.2620087336245,205.29779747165384 710.7610729881472,205.29779747165384 711.26013724267,205.29779747165384 711.7592014971927,205.29779747165384 712.2582657517155,205.29779747165384 712.7573300062382,205.29779747165384 713.2563942607611,205.29779747165384 713.7554585152839,221.42857142857142 714.2545227698066,221.42857142857142 714.7535870243294,221.42857142857142 715.2526512788521,221.42857142857142 715.751715533375,221.42857142857142 716.2507797878977,221.42857142857142 716.7498440424205,221.42857142857142 717.2489082969432,225.57297387872129 717.747972551466,225.57297387872129 718.2470368059887,225.57297387872129 718.7461010605116,225.57297387872129 719.2451653150343,225.57297387872129 719.7442295695571,225.57297387872129 720.2432938240798,225.57297387872129 720.7423580786026,232.09305356444673 721.2414223331253,232.09305356444673 721.7404865876482,232.09305356444673 722.239550842171,232.09305356444673 722.7386150966937,232.09305356444673 723.2376793512165,232.09305356444673 723.7367436057392,232.09305356444673 724.235807860262,240.95902142950231 724.7348721147848,240.95902142950231 725.2339363693076,240.95902142950231 725.7330006238303,240.95902142950231 726.2320648783531,240.95902142950231 726.7311291328758,240.95902142950231 727.2301933873986,240.95902142950231 727.7292576419214,240.58293459440335 728.2283218964442,240.58293459440335 728.7273861509669,240.58293459440335 729.2264504054897,240.58293459440335 729.7255146600124,240.58293459440335 730.2245789145353,240.58293459440335 730.723643169058,240.58293459440335 731.2227074235808,239.45839772113717 731.7217716781036,239.45839772113717 732.2208359326263,239.45839772113717 732.719900187149,239.45839772113717 733.2189644416719,239.45839772113717 733.7180286961947,239.45839772113717 734.2170929507174,239.45839772113717 734.7161572052402,238.02852302135497 735.2152214597629,238.02852302135497 735.7142857142857,238.02852302135497 736.2133499688085,238.02852302135497 736.7124142233313,238.02852302135497 737.211478477854,238.02852302135497 737.7105427323768,238.02852302135497 738.2096069868995,242.71657574798456 738.7086712414223,242.71657574798456 739.2077354959451,242.71657574798456 739.7067997504679,242.71657574798456 740.2058640049906,242.71657574798456 740.7049282595134,242.71657574798456 741.2039925140361,242.71657574798456 741.703056768559,242.71657574798456 742.2021210230818,242.71657574798456 742.7011852776045,242.71657574798456 743.2002495321273,242.71657574798456 743.69931378665,242.71657574798456 744.1983780411728,242.71657574798456 744.6974422956956,242.71657574798456 745.1965065502184,250.0 745.6955708047411,250.0 746.1946350592639,250.0 746.6936993137866,250.0 747.1927635683094,250.0 747.6918278228322,250.0 748.190892077355,250.0 748.6899563318777,248.62225614864738 749.1890205864005,248.62225614864738 749.6880848409232,248.62225614864738 750.187149095446,248.62225614864738 750.6862133499689,248.62225614864738 751.1852776044916,248.62225614864738 751.6843418590144,248.62225614864738 752.1834061135371,244.75712610079867 752.6824703680599,244.75712610079867 753.1815346225826,244.75712610079867 753.6805988771055,244.75712610079867 754.1796631316282,244.75712610079867 754.678727386151,244.75712610079867 755.1777916406737,244.75712610079867 755.6768558951965,239.26476885554166 756.1759201497193,239.26476885554166 756.6749844042421,239.26476885554166 757.1740486587648,239.26476885554166 757.6731129132876,239.26476885554166 758.1721771678103,239.26476885554166 758.6712414223331,239.26476885554166 759.170305676856,228.5146431829606 759.6693699313787,228.5146431829606 760.1684341859014,228.5146431829606 760.6674984404242,228.5146431829606 761.166562694947,228.5146431829606 761.6656269494697,228.5146431829606 762.1646912039926,228.5146431829606 762.6637554585153,232.61063841671162 763.1628197130381,232.61063841671162 763.6618839675608,232.61063841671162 764.1609482220836,232.61063841671162 764.6600124766063,232.61063841671162 765.1590767311292,232.61063841671162 765.6581409856519,232.61063841671162 766.1572052401747,236.93749883636494 766.6562694946974,236.93749883636494 767.1553337492202,236.93749883636494 767.6543980037429,236.93749883636494 768.1534622582658,236.93749883636494 768.6525265127885,236.93749883636494 769.1515907673113,236.93749883636494 769.650655021834,232.0297518199251 770.1497192763568,232.0297518199251 770.6487835308797,232.0297518199251 771.1478477854024,232.0297518199251 771.6469120399252,232.0297518199251 772.1459762944479,232.0297518199251 772.6450405489707,232.0297518199251 773.1441048034934,235.3102716389566 773.6431690580163,235.3102716389566 774.142233312539,235.3102716389566 774.6412975670618,235.3102716389566 775.1403618215845,235.3102716389566 775.6394260761073,235.3102716389566 776.13849033063,235.3102716389566 776.6375545851529,233.10215784476173 777.1366188396756,233.10215784476173 777.6356830941984,233.10215784476173 778.1347473487211,233.10215784476173 778.6338116032439,233.10215784476173 779.1328758577666,233.10215784476173 779.6319401122895,233.10215784476173 780.1310043668122,224.10213922660162 780.630068621335,224.10213922660162 781.1291328758577,224.10213922660162 781.6281971303805,224.10213922660162 782.1272613849032,224.10213922660162 782.6263256394261,224.10213922660162 783.1253898939489,224.10213922660162 783.6244541484716,212.5886689877306 784.1235184029944,212.5886689877306 784.6225826575171,212.5886689877306 785.12164691204,212.5886689877306 785.6207111665627,212.5886689877306 786.1197754210855,212.5886689877306 786.6188396756082,212.5886689877306 787.117903930131,216.1484612090633 787.6169681846537,216.1484612090633 788.1160324391766,216.1484612090633 788.6150966936993,216.1484612090633 789.1141609482221,216.1484612090633 789.6132252027448,216.1484612090633 790.1122894572676,216.1484612090633 790.6113537117903,215.1095678725028 791.1104179663132,215.1095678725028 791.609482220836,215.1095678725028 792.1085464753587,215.1095678725028 792.6076107298815,215.1095678725028 793.1066749844042,215.1095678725028 793.605739238927,215.1095678725028 794.1048034934498,199.01975386792276 794.6038677479726,199.01975386792276 795.1029320024953,199.01975386792276 795.6019962570181,199.01975386792276 796.1010605115408,199.01975386792276 796.6001247660637,199.01975386792276 797.0991890205864,199.01975386792276 797.5982532751092,193.38217497346912 798.0973175296319,193.38217497346912 798.5963817841547,193.38217497346912 799.0954460386774,193.38217497346912 799.5945102932003,193.38217497346912 800.093574547723,193.38217497346912 800.5926388022458,193.38217497346912 801.0917030567686,192.20178361974268 801.5907673112913,192.20178361974268 802.089831565814,192.20178361974268 802.5888958203369,192.20178361974268 803.0879600748597,192.20178361974268 803.5870243293824,192.20178361974268 804.0860885839052,192.20178361974268 804.5851528384279,196.3350151738005 805.0842170929507,196.3350151738005 805.5832813474735,196.3350151738005 806.0823456019963,196.3350151738005 806.581409856519,196.3350151738005 807.0804741110418,196.3350151738005 807.5795383655645,196.3350151738005 808.0786026200873,202.83275306734188 808.5776668746101,202.83275306734188 809.0767311291329,202.83275306734188 809.5757953836556,202.83275306734188 810.0748596381784,202.83275306734188 810.5739238927011,202.83275306734188 811.072988147224,202.83275306734188 811.5720524017468,202.83275306734188 812.0711166562695,202.83275306734188 812.5701809107923,202.83275306734188 813.069245165315,202.83275306734188 813.5683094198378,202.83275306734188 814.0673736743606,202.83275306734188 814.5664379288834,202.83275306734188 815.0655021834061,208.42937200945798 815.5645664379289,208.42937200945798 816.0636306924516,208.42937200945798 816.5626949469744,208.42937200945798 817.0617592014972,208.42937200945798 817.56082345602,208.42937200945798 818.0598877105427,208.42937200945798 818.5589519650655,208.347452104783 819.0580162195882,208.347452104783 819.557080474111,208.347452104783 820.0561447286339,208.347452104783 820.5552089831566,208.347452104783 821.0542732376794,208.347452104783 821.5533374922021,208.347452104783 822.0524017467249,201.551823648787 822.5514660012476,201.551823648787 823.0505302557705,201.551823648787 823.5495945102932,201.551823648787 824.048658764816,201.551823648787 824.5477230193387,201.551823648787 825.0467872738615,201.551823648787 825.5458515283843,203.99452626091488 826.0449157829071,203.99452626091488 826.5439800374298,203.99452626091488 827.0430442919526,203.99452626091488 827.5421085464753,203.99452626091488 828.0411728009981,203.99452626091488 828.540237055521,203.99452626091488 829.0393013100437,202.86998938764867 829.5383655645664,202.86998938764867 830.0374298190892,202.86998938764867 830.536494073612,202.86998938764867 831.0355583281347,202.86998938764867 831.5346225826576,202.86998938764867 832.0336868371803,202.86998938764867 832.5327510917031,204.73180540299003 833.0318153462258,204.73180540299003 833.5308796007486,204.73180540299003 834.0299438552713,204.73180540299003 834.5290081097942,204.73180540299003 835.0280723643169,204.73180540299003 835.5271366188397,204.73180540299003 836.0262008733624,200.95231889184709 836.5252651278852,200.95231889184709 837.024329382408,200.95231889184709 837.5233936369308,200.95231889184709 838.0224578914535,200.95231889184709 838.5215221459763,200.95231889184709 839.020586400499,200.95231889184709 839.5196506550218,203.68918843439891 840.0187149095447,203.68918843439891 840.5177791640674,203.68918843439891 841.0168434185902,203.68918843439891 841.5159076731129,203.68918843439891 842.0149719276357,203.68918843439891 842.5140361821584,203.68918843439891 843.0131004366813,204.35944219992177 843.512164691204,204.35944219992177 844.0112289457268,204.35944219992177 844.5102932002495,204.35944219992177 845.0093574547723,204.35944219992177 845.508421709295,204.35944219992177 846.0074859638179,204.35944219992177 846.5065502183406,212.99454487907502 847.0056144728634,212.99454487907502 847.5046787273861,212.99454487907502 848.0037429819089,212.99454487907502 848.5028072364316,212.99454487907502 849.0018714909545,212.99454487907502 849.5009357454772,212.99454487907502 850.0,207.5208057939714 " fill="none" stroke="#3182ce" stroke-width="1.5"/><rect x="50" y="50" width="800" height="200" fill="none" stroke="#cbd5e0" stroke-width="1"/></svg>