<svg xmlns="http://www.w3.org/2000/svg" width="900" height="300">
        <rect width="900" height="300" fill="#f7fafc"/>
        <text x="450.0" y="25" text-anchor="middle" font-family="Arial" font-size="16" fill="#2d3748">百分比变化 - 铁矿石：进口：库存：47个港口（周度）</text>
    <line x1="50" y1="50.0" x2="850" y2="50.0" stroke="#e2e8f0" stroke-width="1"/><text x="45" y="54.0" text-anchor="end" font-family="Arial" font-size="10" fill="#718096">0.04</text><line x1="50" y1="100.0" x2="850" y2="100.0" stroke="#e2e8f0" stroke-width="1"/><text x="45" y="104.0" text-anchor="end" font-family="Arial" font-size="10" fill="#718096">0.02</text><line x1="50" y1="150.0" x2="850" y2="150.0" stroke="#e2e8f0" stroke-width="1"/><text x="45" y="154.0" text-anchor="end" font-family="Arial" font-size="10" fill="#718096">-0.00</text><line x1="50" y1="200.0" x2="850" y2="200.0" stroke="#e2e8f0" stroke-width="1"/><text x="45" y="204.0" text-anchor="end" font-family="Arial" font-size="10" fill="#718096">-0.02</text><line x1="50" y1="250.0" x2="850" y2="250.0" stroke="#e2e8f0" stroke-width="1"/><text x="45" y="254.0" text-anchor="end" font-family="Arial" font-size="10" fill="#718096">-0.04</text><path d="M 50.0,146.47876017926438 L 50.499375780274654,146.47876017926438 50.998751560549316,146.47876017926438 51.49812734082397,146.47876017926438 51.997503121098624,146.47876017926438 52.496878901373286,146.47876017926438 52.99625468164794,182.86309133425468 53.495630461922595,146.47876017926438 53.995006242197256,146.47876017926438 54.49438202247191,146.47876017926438 54.993757802746565,146.47876017926438 55.493133583021226,146.47876017926438 55.99250936329588,146.47876017926438 56.491885143570535,136.61980594008386 56.991260923845196,146.47876017926438 57.49063670411985,146.47876017926438 57.990012484394505,146.47876017926438 58.48938826466916,146.47876017926438 58.98876404494382,146.47876017926438 59.488139825218475,146.47876017926438 59.98751560549313,146.2598767167139 60.48689138576779,146.47876017926438 60.986267166042445,146.47876017926438 61.4856429463171,146.47876017926438 61.98501872659176,146.47876017926438 62.484394506866415,146.47876017926438 62.98377028714107,146.47876017926438 63.48314606741573,130.91873472622368 63.982521847690386,146.47876017926438 64.48189762796504,146.47876017926438 64.9812734082397,146.47876017926438 65.48064918851436,146.47876017926438 65.98002496878901,146.47876017926438 66.47940074906367,146.47876017926438 66.97877652933832,193.62942012351752 67.47815230961298,146.47876017926438 67.97752808988764,146.47876017926438 68.47690387016229,146.47876017926438 68.97627965043695,146.47876017926438 69.47565543071161,146.47876017926438 69.97503121098626,146.47876017926438 70.47440699126092,166.49492207934165 70.97378277153558,146.47876017926438 71.47315855181023,146.47876017926438 71.97253433208489,146.47876017926438 72.47191011235955,146.47876017926438 72.9712858926342,146.47876017926438 73.47066167290886,146.47876017926438 73.97003745318352,75.02696089913258 74.46941323345817,146.47876017926438 74.96878901373283,146.47876017926438 75.46816479400749,146.47876017926438 75.96754057428214,146.47876017926438 76.4669163545568,146.47876017926438 76.96629213483146,146.47876017926438 77.46566791510611,122.862232489323 77.96504369538077,146.47876017926438 78.46441947565543,146.47876017926438 78.96379525593008,146.47876017926438 79.46317103620474,146.47876017926438 79.9625468164794,146.47876017926438 80.46192259675405,146.47876017926438 80.96129837702871,120.64485102944278 81.46067415730337,146.47876017926438 81.96004993757802,146.47876017926438 82.45942571785268,146.47876017926438 82.95880149812734,146.47876017926438 83.45817727840199,146.47876017926438 83.95755305867665,146.47876017926438 84.45692883895131,173.1240825974594 84.95630461922596,146.47876017926438 85.45568039950062,146.47876017926438 85.95505617977528,146.47876017926438 86.45443196004993,146.47876017926438 86.95380774032459,146.47876017926438 87.45318352059925,146.47876017926438 87.9525593008739,148.56438701894925 88.45193508114856,146.47876017926438 88.95131086142322,146.47876017926438 89.45068664169787,146.47876017926438 89.95006242197253,146.47876017926438 90.4494382022472,146.47876017926438 90.94881398252184,146.47876017926438 91.4481897627965,171.17413861757197 91.94756554307116,146.47876017926438 92.44694132334581,146.47876017926438 92.94631710362047,146.47876017926438 93.44569288389513,146.47876017926438 93.94506866416978,146.47876017926438 94.44444444444444,146.47876017926438 94.9438202247191,188.65392648287386 95.44319600499375,146.47876017926438 95.94257178526841,146.47876017926438 96.44194756554307,146.47876017926438 96.94132334581772,146.47876017926438 97.44069912609238,146.47876017926438 97.94007490636704,146.47876017926438 98.43945068664169,140.4260993215125 98.93882646691635,146.47876017926438 99.43820224719101,146.47876017926438 99.93757802746566,146.47876017926438 100.43695380774032,146.47876017926438 100.93632958801498,146.47876017926438 101.43570536828963,146.47876017926438 101.9350811485643,157.73907119824483 102.43445692883896,146.47876017926438 102.9338327091136,146.47876017926438 103.43320848938826,146.47876017926438 103.93258426966293,146.47876017926438 104.43196004993757,146.47876017926438 104.93133583021223,146.47876017926438 105.4307116104869,173.13686767541907 105.93008739076154,146.47876017926438 106.4294631710362,146.47876017926438 106.92883895131087,146.47876017926438 107.42821473158551,146.47876017926438 107.92759051186017,146.47876017926438 108.42696629213484,146.47876017926438 108.92634207240948,196.36201094636905 109.42571785268414,146.47876017926438 109.9250936329588,146.47876017926438 110.42446941323345,146.47876017926438 110.92384519350811,146.47876017926438 111.42322097378278,146.47876017926438 111.92259675405742,146.47876017926438 112.42197253433208,169.8753796484982 112.92134831460675,146.47876017926438 113.4207240948814,146.47876017926438 113.92009987515605,146.47876017926438 114.41947565543072,146.47876017926438 114.91885143570536,146.47876017926438 115.41822721598002,146.47876017926438 115.91760299625469,178.52394811015077 116.41697877652933,146.47876017926438 116.916354556804,146.47876017926438 117.41573033707866,146.47876017926438 117.9151061173533,146.47876017926438 118.41448189762797,146.47876017926438 118.91385767790263,146.47876017926438 119.41323345817727,174.38919534037586 119.91260923845194,146.47876017926438 120.4119850187266,146.47876017926438 120.91136079900124,146.47876017926438 121.4107365792759,146.47876017926438 121.91011235955057,146.47876017926438 122.40948813982521,146.47876017926438 122.90886392009988,202.57931628135762 123.40823970037454,146.47876017926438 123.90761548064918,146.47876017926438 124.40699126092385,146.47876017926438 124.90636704119851,146.47876017926438 125.40574282147315,146.47876017926438 125.90511860174782,146.47876017926438 126.40449438202248,219.49821984868714 126.90387016229712,146.47876017926438 127.40324594257179,146.47876017926438 127.90262172284645,146.47876017926438 128.4019975031211,146.47876017926438 128.90137328339574,146.47876017926438 129.40074906367042,146.47876017926438 129.90012484394506,157.7903579041061 130.39950062421974,146.47876017926438 130.8988764044944,146.47876017926438 131.39825218476904,146.47876017926438 131.89762796504368,146.47876017926438 132.39700374531836,146.47876017926438 132.896379525593,146.47876017926438 133.39575530586768,186.86125848109373 133.89513108614233,146.47876017926438 134.39450686641698,146.47876017926438 134.89388264669162,146.47876017926438 135.3932584269663,146.47876017926438 135.89263420724095,146.47876017926438 136.39200998751562,146.47876017926438 136.89138576779027,220.93161252039758 137.39076154806492,146.47876017926438 137.89013732833956,146.47876017926438 138.38951310861424,146.47876017926438 138.88888888888889,146.47876017926438 139.38826466916356,146.47876017926438 139.8876404494382,146.47876017926438 140.38701622971286,162.48804448816747 140.8863920099875,146.47876017926438 141.38576779026218,146.47876017926438 141.88514357053683,146.47876017926438 142.3845193508115,146.47876017926438 142.88389513108615,146.47876017926438 143.3832709113608,146.47876017926438 143.88264669163544,171.67324463807495 144.38202247191012,146.47876017926438 144.88139825218477,146.47876017926438 145.38077403245944,146.47876017926438 145.8801498127341,146.47876017926438 146.37952559300874,146.47876017926438 146.87890137328338,146.47876017926438 147.37827715355806,132.80992590510544 147.8776529338327,146.47876017926438 148.37702871410738,146.47876017926438 148.87640449438203,146.47876017926438 149.37578027465668,146.47876017926438 149.87515605493132,146.47876017926438 150.37453183520597,146.47876017926438 150.87390761548065,142.59565873406257 151.37328339575532,146.47876017926438 151.87265917602997,146.47876017926438 152.37203495630462,146.47876017926438 152.87141073657926,146.47876017926438 153.3707865168539,146.47876017926438 153.8701622971286,146.47876017926438 154.36953807740326,78.80317030894994 154.8689138576779,146.47876017926438 155.36828963795256,146.47876017926438 155.8676654182272,146.47876017926438 156.36704119850185,146.47876017926438 156.86641697877653,146.47876017926438 157.3657927590512,146.47876017926438 157.86516853932585,123.21267538003889 158.3645443196005,146.47876017926438 158.86392009987514,146.47876017926438 159.3632958801498,146.47876017926438 159.86267166042447,146.47876017926438 160.36204744069914,146.47876017926438 160.8614232209738,146.47876017926438 161.36079900124844,92.46339173478869 161.86017478152309,146.47876017926438 162.35955056179773,146.47876017926438 162.8589263420724,146.47876017926438 163.35830212234708,146.47876017926438 163.85767790262173,146.47876017926438 164.35705368289638,146.47876017926438 164.85642946317103,117.20344474894402 165.35580524344567,146.47876017926438 165.85518102372035,146.47876017926438 166.35455680399502,146.47876017926438 166.85393258426967,146.47876017926438 167.35330836454432,146.47876017926438 167.85268414481897,146.47876017926438 168.3520599250936,112.06867441188642 168.8514357053683,146.47876017926438 169.35081148564296,146.47876017926438 169.8501872659176,146.47876017926438 170.34956304619226,146.47876017926438 170.8489388264669,146.47876017926438 171.34831460674155,146.47876017926438 171.84769038701623,143.7734230435903 172.3470661672909,146.47876017926438 172.84644194756555,146.47876017926438 173.3458177278402,146.47876017926438 173.84519350811485,146.47876017926438 174.3445692883895,146.47876017926438 174.84394506866417,146.47876017926438 175.34332084893884,156.28574454047896 175.8426966292135,146.47876017926438 176.34207240948814,146.47876017926438 176.8414481897628,146.47876017926438 177.34082397003743,146.47876017926438 177.8401997503121,146.47876017926438 178.33957553058676,146.47876017926438 178.83895131086143,101.74213766503487 179.33832709113608,146.47876017926438 179.83770287141073,146.47876017926438 180.3370786516854,146.47876017926438 180.83645443196005,146.47876017926438 181.3358302122347,146.47876017926438 181.83520599250937,146.47876017926438 182.33458177278402,201.37481066373098 182.83395755305867,146.47876017926438 183.33333333333334,146.47876017926438 183.832709113608,146.47876017926438 184.33208489388264,146.47876017926438 184.8314606741573,146.47876017926438 185.33083645443196,146.47876017926438 185.8302122347066,134.93349319560585 186.32958801498128,146.47876017926438 186.82896379525593,146.47876017926438 187.32833957553058,146.47876017926438 187.82771535580525,146.47876017926438 188.3270911360799,146.47876017926438 188.82646691635455,146.47876017926438 189.32584269662922,243.1586169473528 189.82521847690387,146.47876017926438 190.32459425717852,146.47876017926438 190.8239700374532,146.47876017926438 191.32334581772784,146.47876017926438 191.8227215980025,146.47876017926438 192.32209737827716,146.47876017926438 192.8214731585518,162.44502904457403 193.32084893882646,146.47876017926438 193.82022471910113,146.47876017926438 194.31960049937578,146.47876017926438 194.81897627965043,146.47876017926438 195.3183520599251,146.47876017926438 195.81772784019975,146.47876017926438 196.3171036204744,165.05503927263644 196.81647940074907,146.47876017926438 197.31585518102372,146.47876017926438 197.81523096129837,146.47876017926438 198.31460674157304,146.47876017926438 198.8139825218477,146.47876017926438 199.31335830212234,146.47876017926438 199.81273408239701,139.18167693376745 200.31210986267166,146.47876017926438 200.8114856429463,146.47876017926438 201.31086142322098,146.47876017926438 201.81023720349563,146.47876017926438 202.30961298377028,146.47876017926438 202.80898876404495,146.47876017926438 203.3083645443196,154.66062449738052 203.80774032459425,146.47876017926438 204.30711610486892,146.47876017926438 204.80649188514357,146.47876017926438 205.30586766541822,146.47876017926438 205.8052434456929,146.47876017926438 206.30461922596754,146.47876017926438 206.8039950062422,142.28649895767458 207.30337078651687,146.47876017926438 207.8027465667915,146.47876017926438 208.30212234706616,146.47876017926438 208.80149812734084,146.47876017926438 209.30087390761548,146.47876017926438 209.80024968789013,146.47876017926438 210.2996254681648,103.97876993886587 210.79900124843945,146.47876017926438 211.2983770287141,146.47876017926438 211.79775280898878,146.47876017926438 212.29712858926342,146.47876017926438 212.79650436953807,146.47876017926438 213.29588014981275,146.47876017926438 213.7952559300874,135.3781406397614 214.29463171036204,146.47876017926438 214.79400749063672,146.47876017926438 215.29338327091136,146.47876017926438 215.792759051186,146.47876017926438 216.2921348314607,146.47876017926438 216.79151061173533,146.47876017926438 217.29088639200998,134.73722760952228 217.79026217228466,146.47876017926438 218.2896379525593,146.47876017926438 218.78901373283395,146.47876017926438 219.28838951310863,146.47876017926438 219.78776529338327,146.47876017926438 220.28714107365792,146.47876017926438 220.7865168539326,114.93350783500809 221.28589263420724,146.47876017926438 221.7852684144819,146.47876017926438 222.28464419475657,146.47876017926438 222.7840199750312,146.47876017926438 223.28339575530586,146.47876017926438 223.78277153558054,146.47876017926438 224.28214731585518,184.1774412667182 224.78152309612983,146.47876017926438 225.2808988764045,146.47876017926438 225.78027465667915,146.47876017926438 226.2796504369538,146.47876017926438 226.77902621722848,146.47876017926438 227.27840199750312,146.47876017926438 227.77777777777777,130.1387961726747 228.27715355805245,146.47876017926438 228.7765293383271,146.47876017926438 229.27590511860174,146.47876017926438 229.77528089887642,146.47876017926438 230.27465667915106,146.47876017926438 230.7740324594257,146.47876017926438 231.2734082397004,152.1608245692112 231.77278401997503,146.47876017926438 232.27215980024968,146.47876017926438 232.77153558052436,146.47876017926438 233.270911360799,146.47876017926438 233.77028714107365,146.47876017926438 234.26966292134833,146.47876017926438 234.76903870162297,158.46947977420186 235.26841448189762,146.47876017926438 235.7677902621723,146.47876017926438 236.26716604244695,146.47876017926438 236.7665418227216,146.47876017926438 237.26591760299627,146.47876017926438 237.76529338327092,146.47876017926438 238.26466916354556,175.93433544921493 238.76404494382024,146.47876017926438 239.26342072409489,146.47876017926438 239.76279650436953,146.47876017926438 240.2621722846442,146.47876017926438 240.76154806491886,146.47876017926438 241.2609238451935,146.47876017926438 241.76029962546818,153.90398699240313 242.25967540574283,146.47876017926438 242.75905118601747,146.47876017926438 243.25842696629215,146.47876017926438 243.7578027465668,146.47876017926438 244.25717852684144,146.47876017926438 244.75655430711612,146.47876017926438 245.25593008739077,102.7027752402814 245.7553058676654,146.47876017926438 246.2546816479401,146.47876017926438 246.75405742821474,146.47876017926438 247.25343320848938,146.47876017926438 247.75280898876406,146.47876017926438 248.2521847690387,146.47876017926438 248.75156054931335,172.41629189796924 249.25093632958803,146.47876017926438 249.75031210986268,146.47876017926438 250.24968789013732,146.47876017926438 250.74906367041197,146.47876017926438 251.24843945068665,146.47876017926438 251.7478152309613,146.47876017926438 252.24719101123594,50.0 252.74656679151062,146.47876017926438 253.24594257178526,146.47876017926438 253.7453183520599,146.47876017926438 254.2446941323346,146.47876017926438 254.74406991260923,146.47876017926438 255.24344569288388,146.47876017926438 255.74282147315856,119.52730346114508 256.24219725343323,146.47876017926438 256.7415730337078,146.47876017926438 257.2409488139825,146.47876017926438 257.7403245942572,146.47876017926438 258.2397003745318,146.47876017926438 258.7390761548065,146.47876017926438 259.2384519350811,129.42905355288534 259.7378277153558,146.47876017926438 260.23720349563047,146.47876017926438 260.7365792759051,146.47876017926438 261.23595505617976,146.47876017926438 261.7353308364544,146.47876017926438 262.2347066167291,146.47876017926438 262.7340823970037,131.79680607281443 263.2334581772784,146.47876017926438 263.73283395755305,146.47876017926438 264.2322097378277,146.47876017926438 264.7315855181024,146.47876017926438 265.230961298377,146.47876017926438 265.7303370786517,146.47876017926438 266.22971285892635,127.4126466868105 266.729088639201,146.47876017926438 267.22846441947564,146.47876017926438 267.7278401997503,146.47876017926438 268.227215980025,146.47876017926438 268.7265917602996,146.47876017926438 269.2259675405743,146.47876017926438 269.72534332084894,188.0190644055622 270.2247191011236,146.47876017926438 270.7240948813983,146.47876017926438 271.2234706616729,146.47876017926438 271.7228464419476,146.47876017926438 272.22222222222223,146.47876017926438 272.7215980024969,146.47876017926438 273.2209737827715,176.55033709663567 273.72034956304617,146.47876017926438 274.2197253433209,146.47876017926438 274.71910112359546,146.47876017926438 275.21847690387017,146.47876017926438 275.7178526841448,146.47876017926438 276.21722846441946,146.47876017926438 276.71660424469417,169.10349276618336 277.21598002496876,146.47876017926438 277.71535580524346,146.47876017926438 278.2147315855181,146.47876017926438 278.71410736579276,146.47876017926438 279.2134831460674,146.47876017926438 279.71285892634205,146.47876017926438 280.21223470661675,153.66590151390938 280.71161048689135,146.47876017926438 281.21098626716605,146.47876017926438 281.7103620474407,146.47876017926438 282.20973782771534,146.47876017926438 282.70911360799005,146.47876017926438 283.20848938826464,146.47876017926438 283.70786516853934,168.57513234019626 284.207240948814,146.47876017926438 284.70661672908864,146.47876017926438 285.2059925093633,146.47876017926438 285.70536828963793,146.47876017926438 286.20474406991264,146.47876017926438 286.7041198501872,146.47876017926438 287.20349563046193,196.4888857658164 287.7028714107366,146.47876017926438 288.2022471910112,146.47876017926438 288.70162297128593,146.47876017926438 289.2009987515605,146.47876017926438 289.7003745318352,146.47876017926438 290.19975031210987,146.47876017926438 290.6991260923845,192.1194389790676 291.19850187265916,146.47876017926438 291.6978776529338,146.47876017926438 292.1972534332085,146.47876017926438 292.6966292134831,146.47876017926438 293.1960049937578,146.47876017926438 293.69538077403246,146.47876017926438 294.1947565543071,133.3879383037032 294.6941323345818,146.47876017926438 295.1935081148564,146.47876017926438 295.6928838951311,146.47876017926438 296.19225967540575,146.47876017926438 296.6916354556804,146.47876017926438 297.19101123595505,146.47876017926438 297.6903870162297,170.82508647006927 298.1897627965044,146.47876017926438 298.689138576779,146.47876017926438 299.1885143570537,146.47876017926438 299.68789013732834,146.47876017926438 300.187265917603,146.47876017926438 300.6866416978777,146.47876017926438 301.1860174781523,179.0233957167061 301.685393258427,146.47876017926438 302.18476903870163,146.47876017926438 302.6841448189763,146.47876017926438 303.1835205992509,146.47876017926438 303.6828963795256,146.47876017926438 304.1822721598003,146.47876017926438 304.68164794007487,179.7389696983893 305.1810237203496,146.47876017926438 305.6803995006242,146.47876017926438 306.17977528089887,146.47876017926438 306.6791510611735,146.47876017926438 307.1785268414482,146.47876017926438 307.67790262172286,146.47876017926438 308.1772784019975,103.14920381170997 308.67665418227216,146.47876017926438 309.1760299625468,146.47876017926438 309.67540574282145,146.47876017926438 310.17478152309616,146.47876017926438 310.6741573033708,146.47876017926438 311.17353308364545,146.47876017926438 311.6729088639201,147.4569650372036 312.17228464419475,146.47876017926438 312.6716604244694,146.47876017926438 313.1710362047441,146.47876017926438 313.67041198501875,146.47876017926438 314.1697877652934,146.47876017926438 314.66916354556804,146.47876017926438 315.1685393258427,155.08055575074758 315.66791510611733,146.47876017926438 316.16729088639204,146.47876017926438 316.6666666666667,146.47876017926438 317.16604244694133,146.47876017926438 317.665418227216,146.47876017926438 318.1647940074906,146.47876017926438 318.6641697877653,169.71217471248215 319.1635455680399,146.47876017926438 319.6629213483146,146.47876017926438 320.1622971285893,146.47876017926438 320.6616729088639,146.47876017926438 321.16104868913857,146.47876017926438 321.6604244694132,146.47876017926438 322.15980024968786,101.01741405694924 322.65917602996257,146.47876017926438 323.1585518102372,146.47876017926438 323.65792759051186,146.47876017926438 324.1573033707865,146.47876017926438 324.65667915106116,146.47876017926438 325.1560549313358,146.47876017926438 325.6554307116105,156.96498840559343 326.15480649188515,146.47876017926438 326.6541822721598,146.47876017926438 327.15355805243445,146.47876017926438 327.6529338327091,146.47876017926438 328.15230961298374,146.47876017926438 328.65168539325845,146.47876017926438 329.1510611735331,153.37982319505932 329.65043695380774,146.47876017926438 330.1498127340824,146.47876017926438 330.64918851435704,146.47876017926438 331.1485642946317,146.47876017926438 331.6479400749064,146.47876017926438 332.14731585518103,146.47876017926438 332.6466916354557,168.78955078506237 333.14606741573033,146.47876017926438 333.645443196005,146.47876017926438 334.1448189762796,146.47876017926438 334.6441947565543,146.47876017926438 335.143570536829,146.47876017926438 335.6429463171036,146.47876017926438 336.14232209737827,174.1354457014811 336.6416978776529,146.47876017926438 337.14107365792756,146.47876017926438 337.64044943820227,146.47876017926438 338.1398252184769,146.47876017926438 338.63920099875156,146.47876017926438 339.1385767790262,146.47876017926438 339.63795255930086,139.70991536473582 340.1373283395755,146.47876017926438 340.6367041198502,146.47876017926438 341.13607990012486,146.47876017926438 341.6354556803995,146.47876017926438 342.13483146067415,146.47876017926438 342.6342072409488,146.47876017926438 343.13358302122344,157.9051552167022 343.63295880149815,146.47876017926438 344.1323345817728,146.47876017926438 344.63171036204744,146.47876017926438 345.1310861423221,146.47876017926438 345.63046192259674,146.47876017926438 346.1298377028714,146.47876017926438 346.6292134831461,183.49112169051912 347.12858926342074,146.47876017926438 347.6279650436954,146.47876017926438 348.12734082397003,146.47876017926438 348.6267166042447,146.47876017926438 349.1260923845193,146.47876017926438 349.62546816479403,146.47876017926438 350.1248439450687,215.63541837459692 350.6242197253433,146.47876017926438 351.12359550561797,146.47876017926438 351.6229712858926,146.47876017926438 352.12234706616726,146.47876017926438 352.62172284644197,146.47876017926438 353.1210986267166,146.47876017926438 353.62047440699126,118.61290199798563 354.1198501872659,146.47876017926438 354.61922596754056,146.47876017926438 355.1186017478152,146.47876017926438 355.6179775280899,146.47876017926438 356.11735330836456,146.47876017926438 356.6167290886392,146.47876017926438 357.11610486891385,149.08023075601778 357.6154806491885,146.47876017926438 358.11485642946315,146.47876017926438 358.61423220973785,146.47876017926438 359.1136079900125,146.47876017926438 359.61298377028714,146.47876017926438 360.1123595505618,146.47876017926438 360.61173533083644,131.19646858579472 361.1111111111111,146.47876017926438 361.6104868913858,146.47876017926438 362.10986267166044,146.47876017926438 362.6092384519351,146.47876017926438 363.10861423220973,146.47876017926438 363.6079900124844,146.47876017926438 364.107365792759,201.51307981792488 364.60674157303373,146.47876017926438 365.1061173533084,146.47876017926438 365.605493133583,146.47876017926438 366.1048689138577,146.47876017926438 366.6042446941323,146.47876017926438 367.10362047440697,146.47876017926438 367.60299625468167,146.22788962281092 368.1023720349563,146.47876017926438 368.60174781523096,146.47876017926438 369.1011235955056,146.47876017926438 369.60049937578026,146.47876017926438 370.0998751560549,146.47876017926438 370.5992509363296,146.47876017926438 371.09862671660426,197.45686744118865 371.5980024968789,146.47876017926438 372.09737827715355,146.47876017926438 372.5967540574282,146.47876017926438 373.09612983770285,146.47876017926438 373.59550561797755,146.47876017926438 374.0948813982522,146.47876017926438 374.59425717852685,179.94113984337793 375.0936329588015,146.47876017926438 375.59300873907614,146.47876017926438 376.0923845193508,146.47876017926438 376.5917602996255,146.47876017926438 377.09113607990014,146.47876017926438 377.5905118601748,146.47876017926438 378.08988764044943,146.47876017926438 378.5892634207241,146.47876017926438 379.0886392009987,146.47876017926438 379.58801498127343,146.47876017926438 380.0873907615481,146.47876017926438 380.5867665418227,146.47876017926438 381.0861423220974,146.47876017926438 381.585518102372,247.70378535903623 382.08489388264667,146.47876017926438 382.5842696629214,146.47876017926438 383.083645443196,146.47876017926438 383.58302122347067,146.47876017926438 384.0823970037453,146.47876017926438 384.58177278401996,146.47876017926438 385.0811485642946,98.22738797929404 385.5805243445693,146.47876017926438 386.07990012484396,146.47876017926438 386.5792759051186,146.47876017926438 387.07865168539325,146.47876017926438 387.5780274656679,146.47876017926438 388.07740324594255,146.47876017926438 388.57677902621725,120.80817796047752 389.0761548064919,146.47876017926438 389.57553058676655,146.47876017926438 390.0749063670412,146.47876017926438 390.57428214731584,146.47876017926438 391.0736579275905,146.47876017926438 391.5730337078652,146.47876017926438 392.07240948813984,117.459609889209 392.5717852684145,146.47876017926438 393.07116104868913,146.47876017926438 393.5705368289638,146.47876017926438 394.06991260923843,146.47876017926438 394.56928838951313,146.47876017926438 395.0686641697878,146.47876017926438 395.5680399500624,144.6230695508241 396.0674157303371,146.47876017926438 396.5667915106117,146.47876017926438 397.06616729088637,146.47876017926438 397.5655430711611,146.47876017926438 398.0649188514357,146.47876017926438 398.56429463171037,146.47876017926438 399.063670411985,168.72413705603574 399.56304619225966,146.47876017926438 400.0624219725343,146.47876017926438 400.561797752809,146.47876017926438 401.06117353308366,146.47876017926438 401.5605493133583,146.47876017926438 402.05992509363296,146.47876017926438 402.5593008739076,127.19198209698702 403.05867665418225,146.47876017926438 403.55805243445695,146.47876017926438 404.0574282147316,146.47876017926438 404.55680399500625,146.47876017926438 405.0561797752809,146.47876017926438 405.55555555555554,146.47876017926438 406.0549313358302,116.30070600957222 406.5543071161049,146.47876017926438 407.05368289637954,146.47876017926438 407.5530586766542,146.47876017926438 408.05243445692884,146.47876017926438 408.5518102372035,146.47876017926438 409.05118601747813,146.47876017926438 409.55056179775283,84.81537761850109 410.0499375780275,146.47876017926438 410.54931335830213,146.47876017926438 411.0486891385768,146.47876017926438 411.5480649188514,146.47876017926438 412.04744069912607,146.47876017926438 412.5468164794008,146.47876017926438 413.0461922596754,195.55869814723727 413.54556803995007,146.47876017926438 414.0449438202247,146.47876017926438 414.54431960049936,146.47876017926438 415.043695380774,146.47876017926438 415.5430711610487,146.47876017926438 416.04244694132336,146.47876017926438 416.541822721598,98.0310247971955 417.04119850187266,146.47876017926438 417.5405742821473,146.47876017926438 418.03995006242195,146.47876017926438 418.53932584269666,146.47876017926438 419.0387016229713,146.47876017926438 419.53807740324595,146.47876017926438 420.0374531835206,127.29250599239532 420.53682896379524,146.47876017926438 421.0362047440699,146.47876017926438 421.5355805243446,146.47876017926438 422.03495630461924,146.47876017926438 422.5343320848939,146.47876017926438 423.03370786516854,146.47876017926438 423.5330836454432,97.70302898992028 424.03245942571783,146.47876017926438 424.53183520599254,146.47876017926438 425.0312109862672,146.47876017926438 425.53058676654183,146.47876017926438 426.0299625468165,146.47876017926438 426.5293383270911,146.47876017926438 427.0287141073658,67.7329031300994 427.5280898876405,146.47876017926438 428.0274656679151,146.47876017926438 428.52684144818977,146.47876017926438 429.0262172284644,146.47876017926438 429.52559300873907,146.47876017926438 430.0249687890137,146.47876017926438 430.5243445692884,141.16568192287573 431.02372034956306,146.47876017926438 431.5230961298377,146.47876017926438 432.02247191011236,146.47876017926438 432.521847690387,146.47876017926438 433.02122347066165,146.47876017926438 433.52059925093636,146.47876017926438 434.019975031211,131.2868180966435 434.51935081148565,146.47876017926438 435.0187265917603,146.47876017926438 435.51810237203495,146.47876017926438 436.0174781523096,146.47876017926438 436.5168539325843,146.47876017926438 437.01622971285894,146.47876017926438 437.5156054931336,116.49882591994005 438.01498127340824,146.47876017926438 438.5143570536829,146.47876017926438 439.01373283395753,146.47876017926438 439.51310861423224,146.47876017926438 440.0124843945069,146.47876017926438 440.51186017478153,146.47876017926438 441.0112359550562,105.50949023649467 441.5106117353308,146.47876017926438 442.0099875156055,146.47876017926438 442.5093632958802,146.47876017926438 443.0087390761548,146.47876017926438 443.5081148564295,146.47876017926438 444.0074906367041,146.47876017926438 444.50686641697877,146.47876017926438 445.0062421972534,146.47876017926438 445.5056179775281,146.47876017926438 446.00499375780277,146.47876017926438 446.5043695380774,146.47876017926438 447.00374531835206,146.47876017926438 447.5031210986267,146.47876017926438 448.00249687890135,81.66231876420022 448.50187265917606,146.47876017926438 449.0012484394507,146.47876017926438 449.50062421972535,146.47876017926438 450.0,146.47876017926438 450.49937578027465,146.47876017926438 450.9987515605493,146.47876017926438 451.49812734082394,91.17854019784664 451.99750312109865,146.47876017926438 452.4968789013733,146.47876017926438 452.99625468164794,146.47876017926438 453.4956304619226,146.47876017926438 453.99500624219723,146.47876017926438 454.4943820224719,146.47876017926438 454.9937578027466,101.7917164406343 455.49313358302123,146.47876017926438 455.9925093632959,146.47876017926438 456.4918851435705,146.47876017926438 456.9912609238452,146.47876017926438 457.4906367041198,146.47876017926438 457.9900124843945,146.47876017926438 458.4893882646692,117.7215819923641 458.9887640449438,146.47876017926438 459.48813982521847,146.47876017926438 459.9875156054931,146.47876017926438 460.48689138576776,146.47876017926438 460.98626716604247,146.47876017926438 461.4856429463171,146.47876017926438 461.98501872659176,134.91329082050922 462.4843945068664,146.47876017926438 462.98377028714106,146.47876017926438 463.4831460674157,146.47876017926438 463.9825218476904,146.47876017926438 464.48189762796505,146.47876017926438 464.9812734082397,146.47876017926438 465.48064918851435,135.61734847242718 465.980024968789,146.47876017926438 466.47940074906364,146.47876017926438 466.97877652933835,146.47876017926438 467.478152309613,146.47876017926438 467.97752808988764,146.47876017926438 468.4769038701623,146.47876017926438 468.97627965043694,140.44098271379386 469.4756554307116,146.47876017926438 469.9750312109863,146.47876017926438 470.47440699126093,146.47876017926438 470.9737827715356,146.47876017926438 471.47315855181023,146.47876017926438 471.9725343320849,146.47876017926438 472.4719101123595,133.46306283621828 472.9712858926342,146.47876017926438 473.4706616729089,146.47876017926438 473.9700374531835,146.47876017926438 474.46941323345817,146.47876017926438 474.9687890137328,146.47876017926438 475.46816479400746,146.47876017926438 475.96754057428217,126.10124903379946 476.4669163545568,146.47876017926438 476.96629213483146,146.47876017926438 477.4656679151061,146.47876017926438 477.96504369538076,146.47876017926438 478.4644194756554,146.47876017926438 478.9637952559301,146.47876017926438 479.46317103620476,111.11628369990399 479.9625468164794,146.47876017926438 480.46192259675405,146.47876017926438 480.9612983770287,146.47876017926438 481.46067415730334,146.47876017926438 481.96004993757805,146.47876017926438 482.4594257178527,146.47876017926438 482.95880149812734,146.47876017926438 483.458177278402,146.47876017926438 483.95755305867664,146.47876017926438 484.4569288389513,146.47876017926438 484.956304619226,146.47876017926438 485.45568039950064,146.47876017926438 485.9550561797753,146.47876017926438 486.45443196004993,162.88999367577824 486.9538077403246,146.47876017926438 487.4531835205992,146.47876017926438 487.95255930087393,146.47876017926438 488.4519350811486,146.47876017926438 488.9513108614232,146.47876017926438 489.45068664169787,146.47876017926438 489.9500624219725,130.48445685865755 490.44943820224717,146.47876017926438 490.94881398252187,146.47876017926438 491.4481897627965,146.47876017926438 491.94756554307116,146.47876017926438 492.4469413233458,146.47876017926438 492.94631710362046,146.47876017926438 493.4456928838951,136.1239449870783 493.9450686641698,146.47876017926438 494.44444444444446,146.47876017926438 494.9438202247191,146.47876017926438 495.44319600499375,146.47876017926438 495.9425717852684,146.47876017926438 496.44194756554305,146.47876017926438 496.94132334581775,138.0779148025828 497.4406991260924,146.47876017926438 497.94007490636704,146.47876017926438 498.4394506866417,146.47876017926438 498.93882646691634,146.47876017926438 499.438202247191,146.47876017926438 499.9375780274657,146.47876017926438 500.43695380774034,139.72814142052954 500.936329588015,146.47876017926438 501.43570536828963,146.47876017926438 501.9350811485643,146.47876017926438 502.4344569288389,146.47876017926438 502.93383270911363,146.47876017926438 503.4332084893883,146.47876017926438 503.9325842696629,156.66510025062658 504.4319600499376,146.47876017926438 504.9313358302122,146.47876017926438 505.43071161048687,146.47876017926438 505.93008739076157,146.47876017926438 506.4294631710362,146.47876017926438 506.92883895131087,146.47876017926438 507.4282147315855,150.30247444936327 507.92759051186016,146.47876017926438 508.4269662921348,146.47876017926438 508.9263420724095,146.47876017926438 509.42571785268416,146.47876017926438 509.9250936329588,146.47876017926438 510.42446941323345,146.47876017926438 510.9238451935081,141.28072322550923 511.42322097378275,146.47876017926438 511.92259675405745,146.47876017926438 512.4219725343321,146.47876017926438 512.9213483146068,146.47876017926438 513.4207240948814,146.47876017926438 513.920099875156,146.47876017926438 514.4194756554307,138.7351507663239 514.9188514357054,146.47876017926438 515.4182272159801,146.47876017926438 515.9176029962547,146.47876017926438 516.4169787765293,146.47876017926438 516.916354556804,146.47876017926438 517.4157303370787,146.47876017926438 517.9151061173534,146.75566447270825 518.414481897628,146.47876017926438 518.9138576779026,146.47876017926438 519.4132334581773,146.47876017926438 519.912609238452,146.47876017926438 520.4119850187266,146.47876017926438 520.9113607990013,146.47876017926438 521.4107365792759,128.93587649029115 521.9101123595506,146.47876017926438 522.4094881398253,146.47876017926438 522.9088639200999,146.47876017926438 523.4082397003745,146.47876017926438 523.9076154806492,146.47876017926438 524.4069912609239,146.47876017926438 524.9063670411986,124.43018566665886 525.4057428214732,146.47876017926438 525.9051186017477,146.47876017926438 526.4044943820224,146.47876017926438 526.9038701622972,146.47876017926438 527.4032459425719,146.47876017926438 527.9026217228464,146.47876017926438 528.401997503121,170.74698525909793 528.9013732833957,146.47876017926438 529.4007490636704,146.47876017926438 529.9001248439452,146.47876017926438 530.3995006242197,146.47876017926438 530.8988764044943,146.47876017926438 531.398252184769,146.47876017926438 531.8976279650437,155.24139398340088 532.3970037453183,146.47876017926438 532.896379525593,146.47876017926438 533.3957553058676,146.47876017926438 533.8951310861423,146.47876017926438 534.394506866417,146.47876017926438 534.8938826466916,146.47876017926438 535.3932584269662,139.277955402525 535.8926342072409,146.47876017926438 536.3920099875156,146.47876017926438 536.8913857677903,146.47876017926438 537.3907615480649,146.47876017926438 537.8901373283395,146.47876017926438 538.3895131086142,146.47876017926438 538.8888888888889,150.77034974507922 539.3882646691636,146.47876017926438 539.8876404494382,146.47876017926438 540.3870162297128,146.47876017926438 540.8863920099875,146.47876017926438 541.3857677902622,146.47876017926438 541.8851435705369,146.47876017926438 542.3845193508115,87.2665259332131 542.8838951310861,146.47876017926438 543.3832709113608,146.47876017926438 543.8826466916355,146.47876017926438 544.3820224719101,146.47876017926438 544.8813982521848,146.47876017926438 545.3807740324594,146.47876017926438 545.8801498127341,139.39145956792294 546.3795255930088,146.47876017926438 546.8789013732834,146.47876017926438 547.378277153558,146.47876017926438 547.8776529338327,146.47876017926438 548.3770287141074,146.47876017926438 548.8764044943821,146.47876017926438 549.3757802746567,145.02353039920675 549.8751560549313,146.47876017926438 550.374531835206,146.47876017926438 550.8739076154807,146.47876017926438 551.3732833957554,146.47876017926438 551.87265917603,146.47876017926438 552.3720349563046,146.47876017926438 552.8714107365793,153.86282587309398 553.370786516854,146.47876017926438 553.8701622971287,146.47876017926438 554.3695380774033,146.47876017926438 554.8689138576779,146.47876017926438 555.3682896379526,146.47876017926438 555.8676654182273,146.47876017926438 556.3670411985019,184.04048965872624 556.8664169787766,146.47876017926438 557.3657927590511,146.47876017926438 557.8651685393259,146.47876017926438 558.3645443196006,146.47876017926438 558.8639200998751,146.47876017926438 559.3632958801497,146.47876017926438 559.8626716604244,146.47876017926438 560.3620474406991,146.47876017926438 560.8614232209738,146.47876017926438 561.3607990012484,146.47876017926438 561.860174781523,146.47876017926438 562.3595505617977,146.47876017926438 562.8589263420724,146.47876017926438 563.358302122347,137.51661572154686 563.8576779026217,146.47876017926438 564.3570536828964,146.47876017926438 564.856429463171,146.47876017926438 565.3558052434457,146.47876017926438 565.8551810237203,146.47876017926438 566.354556803995,146.47876017926438 566.8539325842696,119.29509814255265 567.3533083645443,146.47876017926438 567.852684144819,146.47876017926438 568.3520599250936,146.47876017926438 568.8514357053683,146.47876017926438 569.3508114856429,146.47876017926438 569.8501872659176,146.47876017926438 570.3495630461923,149.34832700911159 570.8489388264669,146.47876017926438 571.3483146067416,146.47876017926438 571.8476903870162,146.47876017926438 572.3470661672909,146.47876017926438 572.8464419475655,146.47876017926438 573.3458177278402,146.47876017926438 573.8451935081149,140.64142052951695 574.3445692883895,146.47876017926438 574.8439450686642,146.47876017926438 575.3433208489388,146.47876017926438 575.8426966292135,146.47876017926438 576.3420724094882,146.47876017926438 576.8414481897628,146.47876017926438 577.3408239700375,175.81173045542204 577.8401997503121,146.47876017926438 578.3395755305868,146.47876017926438 578.8389513108614,146.47876017926438 579.3383270911361,146.47876017926438 579.8377028714108,146.47876017926438 580.3370786516854,146.47876017926438 580.8364544319601,145.48611111111114 581.3358302122347,146.47876017926438 581.8352059925094,146.47876017926438 582.3345817727841,146.47876017926438 582.8339575530587,146.47876017926438 583.3333333333334,146.47876017926438 583.832709113608,146.47876017926438 584.3320848938827,135.88415157832276 584.8314606741573,146.47876017926438 585.330836454432,146.47876017926438 585.8302122347067,146.47876017926438 586.3295880149813,146.47876017926438 586.828963795256,146.47876017926438 587.3283395755305,146.47876017926438 587.8277153558053,194.3427981948641 588.3270911360798,146.47876017926438 588.8264669163545,146.47876017926438 589.3258426966293,146.47876017926438 589.8252184769038,146.47876017926438 590.3245942571785,146.47876017926438 590.8239700374531,146.47876017926438 591.3233458177278,139.49505773780245 591.8227215980025,146.47876017926438 592.3220973782771,146.47876017926438 592.8214731585518,146.47876017926438 593.3208489388264,146.47876017926438 593.8202247191011,146.47876017926438 594.3196004993757,146.47876017926438 594.8189762796504,134.6730826286901 595.3183520599251,146.47876017926438 595.8177278401997,146.47876017926438 596.3171036204744,146.47876017926438 596.816479400749,146.47876017926438 597.3158551810237,146.47876017926438 597.8152309612984,146.47876017926438 598.314606741573,156.22913885180242 598.8139825218477,146.47876017926438 599.3133583021223,146.47876017926438 599.812734082397,146.47876017926438 600.3121098626716,146.47876017926438 600.8114856429463,146.47876017926438 601.310861423221,146.47876017926438 601.8102372034956,158.68567934634095 602.3096129837703,146.47876017926438 602.8089887640449,146.47876017926438 603.3083645443196,146.47876017926438 603.8077403245943,146.47876017926438 604.3071161048689,146.47876017926438 604.8064918851436,146.47876017926438 605.3058676654182,144.22909883743628 605.8052434456929,146.47876017926438 606.3046192259675,146.47876017926438 606.8039950062422,146.47876017926438 607.3033707865169,146.47876017926438 607.8027465667915,146.47876017926438 608.3021223470662,146.47876017926438 608.8014981273408,129.98605840926302 609.3008739076155,146.47876017926438 609.8002496878902,146.47876017926438 610.2996254681648,146.47876017926438 610.7990012484395,146.47876017926438 611.2983770287141,146.47876017926438 611.7977528089888,146.47876017926438 612.2971285892634,146.26295099118516 612.7965043695381,146.47876017926438 613.2958801498128,146.47876017926438 613.7952559300874,146.47876017926438 614.2946317103621,146.47876017926438 614.7940074906367,146.47876017926438 615.2933832709114,146.47876017926438 615.7927590511861,164.75624907283787 616.2921348314607,146.47876017926438 616.7915106117354,146.47876017926438 617.29088639201,146.47876017926438 617.7902621722847,146.47876017926438 618.2896379525592,146.47876017926438 618.789013732834,146.47876017926438 619.2883895131087,146.47876017926438 619.7877652933832,146.47876017926438 620.287141073658,146.47876017926438 620.7865168539325,146.47876017926438 621.2858926342072,146.47876017926438 621.785268414482,146.47876017926438 622.2846441947565,146.47876017926438 622.7840199750312,83.43546756298848 623.2833957553058,146.47876017926438 623.7827715355805,146.47876017926438 624.2821473158551,146.47876017926438 624.7815230961298,146.47876017926438 625.2808988764045,146.47876017926438 625.7802746566791,146.47876017926438 626.2796504369538,146.19668329702762 626.7790262172284,146.47876017926438 627.2784019975031,146.47876017926438 627.7777777777778,146.47876017926438 628.2771535580524,146.47876017926438 628.7765293383271,146.47876017926438 629.2759051186017,146.47876017926438 629.7752808988764,157.75859040123675 630.274656679151,146.47876017926438 630.7740324594257,146.47876017926438 631.2734082397004,146.47876017926438 631.772784019975,146.47876017926438 632.2721598002497,146.47876017926438 632.7715355805243,146.47876017926438 633.270911360799,173.14982354640495 633.7702871410737,146.47876017926438 634.2696629213483,146.47876017926438 634.769038701623,146.47876017926438 635.2684144818976,146.47876017926438 635.7677902621723,146.47876017926438 636.2671660424469,146.47876017926438 636.7665418227216,250.0 637.2659176029963,146.47876017926438 637.7652933832709,146.47876017926438 638.2646691635456,146.47876017926438 638.7640449438202,146.47876017926438 639.2634207240949,146.47876017926438 639.7627965043696,146.47876017926438 640.2621722846442,177.53242139616955 640.7615480649189,146.47876017926438 641.2609238451935,146.47876017926438 641.7602996254682,146.47876017926438 642.2596754057428,146.47876017926438 642.7590511860175,146.47876017926438 643.2584269662922,146.47876017926438 643.7578027465668,143.42556644727082 644.2571785268415,146.47876017926438 644.7565543071161,146.47876017926438 645.2559300873908,146.47876017926438 645.7553058676655,146.47876017926438 646.2546816479401,146.47876017926438 646.7540574282148,146.47876017926438 647.2534332084894,135.85997216561654 647.7528089887641,146.47876017926438 648.2521847690386,146.47876017926438 648.7515605493134,146.47876017926438 649.2509363295881,146.47876017926438 649.7503121098626,146.47876017926438 650.2496878901374,146.47876017926438 650.7490636704119,152.340938014819 651.2484394506866,146.47876017926438 651.7478152309614,146.47876017926438 652.2471910112359,146.47876017926438 652.7465667915106,146.47876017926438 653.2459425717852,146.47876017926438 653.7453183520599,146.47876017926438 654.2446941323345,164.8293484880425 654.7440699126092,146.47876017926438 655.2434456928839,146.47876017926438 655.7428214731585,146.47876017926438 656.2421972534332,146.47876017926438 656.7415730337078,146.47876017926438 657.2409488139825,146.47876017926438 657.7403245942572,192.71028525363255 658.2397003745318,146.47876017926438 658.7390761548065,146.47876017926438 659.2384519350811,146.47876017926438 659.7378277153558,146.47876017926438 660.2372034956304,146.47876017926438 660.7365792759051,146.47876017926438 661.2359550561798,107.74219427072353 661.7353308364544,146.47876017926438 662.2347066167291,146.47876017926438 662.7340823970037,146.47876017926438 663.2334581772784,146.47876017926438 663.7328339575531,146.47876017926438 664.2322097378277,146.47876017926438 664.7315855181024,135.37450518820418 665.230961298377,146.47876017926438 665.7303370786517,146.47876017926438 666.2297128589263,146.47876017926438 666.729088639201,146.47876017926438 667.2284644194757,146.47876017926438 667.7278401997503,146.47876017926438 668.227215980025,160.20951912491512 668.7265917602996,146.47876017926438 669.2259675405743,146.47876017926438 669.725343320849,146.47876017926438 670.2247191011236,146.47876017926438 670.7240948813983,146.47876017926438 671.2234706616729,146.47876017926438 671.7228464419476,149.4070310121097 672.2222222222222,146.47876017926438 672.7215980024969,146.47876017926438 673.2209737827716,146.47876017926438 673.7203495630462,146.47876017926438 674.2197253433209,146.47876017926438 674.7191011235955,146.47876017926438 675.2184769038702,172.15009876716715 675.7178526841449,146.47876017926438 676.2172284644195,146.47876017926438 676.7166042446942,146.47876017926438 677.2159800249688,146.47876017926438 677.7153558052435,146.47876017926438 678.214731585518,146.47876017926438 678.7141073657928,166.92019671452775 679.2134831460675,146.47876017926438 679.712858926342,146.47876017926438 680.2122347066168,146.47876017926438 680.7116104868913,146.47876017926438 681.210986267166,146.47876017926438 681.7103620474408,146.47876017926438 682.2097378277153,158.15924644164932 682.70911360799,146.47876017926438 683.2084893882646,146.47876017926438 683.7078651685393,146.47876017926438 684.2072409488139,146.47876017926438 684.7066167290886,146.47876017926438 685.2059925093633,146.47876017926438 685.7053682896379,129.05587079068388 686.2047440699126,146.47876017926438 686.7041198501872,146.47876017926438 687.2034956304619,146.47876017926438 687.7028714107366,146.47876017926438 688.2022471910112,146.47876017926438 688.7016229712859,146.47876017926438 689.2009987515605,158.1843774155014 689.7003745318352,146.47876017926438 690.1997503121098,146.47876017926438 690.6991260923845,146.47876017926438 691.1985018726592,146.47876017926438 691.6978776529338,146.47876017926438 692.1972534332085,146.47876017926438 692.6966292134831,138.58948871399684 693.1960049937578,146.47876017926438 693.6953807740325,146.47876017926438 694.1947565543071,146.47876017926438 694.6941323345818,146.47876017926438 695.1935081148564,146.47876017926438 695.6928838951311,146.47876017926438 696.1922596754057,145.5233683898219 696.6916354556804,146.47876017926438 697.1910112359551,146.47876017926438 697.6903870162297,146.47876017926438 698.1897627965044,146.47876017926438 698.689138576779,146.47876017926438 699.1885143570537,146.47876017926438 699.6878901373284,169.89260534513855 700.187265917603,146.47876017926438 700.6866416978777,146.47876017926438 701.1860174781523,146.47876017926438 701.685393258427,146.47876017926438 702.1847690387016,146.47876017926438 702.6841448189763,146.47876017926438 703.183520599251,140.5911097838053 703.6828963795256,146.47876017926438 704.1822721598003,146.47876017926438 704.6816479400749,146.47876017926438 705.1810237203496,146.47876017926438 705.6803995006243,146.47876017926438 706.1797752808989,146.47876017926438 706.6791510611736,144.0747507397778 707.1785268414482,146.47876017926438 707.6779026217229,146.47876017926438 708.1772784019975,146.47876017926438 708.6766541822722,146.47876017926438 709.1760299625469,146.47876017926438 709.6754057428215,146.47876017926438 710.1747815230962,175.9138158870697 710.6741573033707,146.47876017926438 711.1735330836455,146.47876017926438 711.6729088639202,146.47876017926438 712.1722846441947,146.47876017926438 712.6716604244695,146.47876017926438 713.171036204744,146.47876017926438 713.6704119850187,138.7140456280889 714.1697877652933,146.47876017926438 714.669163545568,146.47876017926438 715.1685393258427,146.47876017926438 715.6679151061173,146.47876017926438 716.167290886392,146.47876017926438 716.6666666666666,146.47876017926438 717.1660424469413,126.93188871711992 717.6654182272159,146.47876017926438 718.1647940074906,146.47876017926438 718.6641697877653,146.47876017926438 719.1635455680399,146.47876017926438 719.6629213483146,146.47876017926438 720.1622971285892,146.47876017926438 720.6616729088639,135.85328683859183 721.1610486891386,146.47876017926438 721.6604244694132,146.47876017926438 722.1598002496879,146.47876017926438 722.6591760299625,146.47876017926438 723.1585518102372,146.47876017926438 723.6579275905118,146.47876017926438 724.1573033707865,155.9686306888717 724.6566791510612,146.47876017926438 725.1560549313358,146.47876017926438 725.6554307116105,146.47876017926438 726.1548064918851,146.47876017926438 726.6541822721598,146.47876017926438 727.1535580524345,146.47876017926438 727.6529338327091,140.08563562332623 728.1523096129838,146.47876017926438 728.6516853932584,146.47876017926438 729.1510611735331,146.47876017926438 729.6504369538077,146.47876017926438 730.1498127340824,146.47876017926438 730.6491885143571,146.47876017926438 731.1485642946317,141.3370361261409 731.6479400749064,146.47876017926438 732.147315855181,146.47876017926438 732.6466916354557,146.47876017926438 733.1460674157304,146.47876017926438 733.645443196005,146.47876017926438 734.1448189762797,146.47876017926438 734.6441947565543,159.04273436707035 735.143570536829,146.47876017926438 735.6429463171036,146.47876017926438 736.1423220973783,146.47876017926438 736.641697877653,146.47876017926438 737.1410736579276,146.47876017926438 737.6404494382023,146.47876017926438 738.1398252184769,117.80734449050976 738.6392009987516,146.47876017926438 739.1385767790263,146.47876017926438 739.6379525593009,146.47876017926438 740.1373283395756,146.47876017926438 740.6367041198502,146.47876017926438 741.1360799001249,146.47876017926438 741.6354556803994,146.47876017926438 742.1348314606741,146.47876017926438 742.6342072409489,146.47876017926438 743.1335830212234,146.47876017926438 743.6329588014981,146.47876017926438 744.1323345817727,146.47876017926438 744.6317103620474,146.47876017926438 745.1310861423221,131.32022033276337 745.6304619225967,146.47876017926438 746.1298377028714,146.47876017926438 746.629213483146,146.47876017926438 747.1285892634207,146.47876017926438 747.6279650436953,146.47876017926438 748.12734082397,146.47876017926438 748.6267166042447,93.01988421208786 749.1260923845193,146.47876017926438 749.625468164794,146.47876017926438 750.1248439450686,146.47876017926438 750.6242197253433,146.47876017926438 751.123595505618,146.47876017926438 751.6229712858926,146.47876017926438 752.1223470661673,122.40570273034612 752.6217228464419,146.47876017926438 753.1210986267166,146.47876017926438 753.6204744069912,146.47876017926438 754.1198501872659,146.47876017926438 754.6192259675406,146.47876017926438 755.1186017478152,146.47876017926438 755.6179775280899,120.08626023782197 756.1173533083645,146.47876017926438 756.6167290886392,146.47876017926438 757.1161048689139,146.47876017926438 757.6154806491885,146.47876017926438 758.1148564294632,146.47876017926438 758.6142322097378,146.47876017926438 759.1136079900125,90.37342187243812 759.6129837702871,146.47876017926438 760.1123595505618,146.47876017926438 760.6117353308365,146.47876017926438 761.1111111111111,146.47876017926438 761.6104868913858,146.47876017926438 762.1098626716604,146.47876017926438 762.6092384519351,117.00937507319702 763.1086142322098,146.47876017926438 763.6079900124844,146.47876017926438 764.1073657927591,146.47876017926438 764.6067415730337,146.47876017926438 765.1061173533084,146.47876017926438 765.605493133583,146.47876017926438 766.1048689138577,158.512519616799 766.6042446941324,146.47876017926438 767.103620474407,146.47876017926438 767.6029962546817,146.47876017926438 768.1023720349563,146.47876017926438 768.601747815231,146.47876017926438 769.1011235955057,146.47876017926438 769.6004993757803,120.68083955995908 770.099875156055,146.47876017926438 770.5992509363296,146.47876017926438 771.0986267166043,146.47876017926438 771.5980024968788,146.47876017926438 772.0973782771536,146.47876017926438 772.5967540574283,146.47876017926438 773.0961298377028,132.6859301680994 773.5955056179776,146.47876017926438 774.0948813982521,146.47876017926438 774.5942571785268,146.47876017926438 775.0936329588015,146.47876017926438 775.5930087390761,146.47876017926438 776.0923845193508,146.47876017926438 776.5917602996254,128.1144108323769 777.0911360799001,146.47876017926438 777.5905118601747,146.47876017926438 778.0898876404494,146.47876017926438 778.5892634207241,146.47876017926438 779.0886392009987,146.47876017926438 779.5880149812734,146.47876017926438 780.087390761548,129.205656274643 780.5867665418227,146.47876017926438 781.0861423220974,146.47876017926438 781.585518102372,146.47876017926438 782.0848938826467,146.47876017926438 782.5842696629213,146.47876017926438 783.083645443196,146.47876017926438 783.5830212234706,87.16668520990952 784.0823970037453,146.47876017926438 784.58177278402,146.47876017926438 785.0811485642946,146.47876017926438 785.5805243445693,146.47876017926438 786.0799001248439,146.47876017926438 786.5792759051186,146.47876017926438 787.0786516853933,131.52956378485152 787.5780274656679,146.47876017926438 788.0774032459426,146.47876017926438 788.5767790262172,146.47876017926438 789.0761548064919,146.47876017926438 789.5755305867665,146.47876017926438 790.0749063670412,146.47876017926438 790.5742821473159,99.40044328109995 791.0736579275905,146.47876017926438 791.5730337078652,146.47876017926438 792.0724094881398,146.47876017926438 792.5717852684145,146.47876017926438 793.0711610486892,146.47876017926438 793.5705368289638,146.47876017926438 794.0699126092385,111.51310909672937 794.5692883895131,146.47876017926438 795.0686641697878,146.47876017926438 795.5680399500624,146.47876017926438 796.0674157303371,146.47876017926438 796.5667915106118,146.47876017926438 797.0661672908864,146.47876017926438 797.5655430711611,117.14835179849936 798.0649188514357,146.47876017926438 798.5642946317104,146.47876017926438 799.0636704119851,146.47876017926438 799.5630461922597,146.47876017926438 800.0624219725344,146.47876017926438 800.561797752809,146.47876017926438 801.0611735330837,109.98036368179015 801.5605493133583,146.47876017926438 802.059925093633,146.47876017926438 802.5593008739077,146.47876017926438 803.0586766541822,146.47876017926438 803.558052434457,146.47876017926438 804.0574282147315,146.47876017926438 804.5568039950062,124.9873857150665 805.056179775281,146.47876017926438 805.5555555555555,146.47876017926438 806.0549313358302,146.47876017926438 806.5543071161048,146.47876017926438 807.0536828963795,146.47876017926438 807.5530586766541,146.47876017926438 808.0524344569288,171.34263813739958 808.5518102372035,146.47876017926438 809.0511860174781,146.47876017926438 809.5505617977528,146.47876017926438 810.0499375780274,146.47876017926438 810.5493133583021,146.47876017926438 811.0486891385768,146.47876017926438 811.5480649188514,146.47876017926438 812.0474406991261,146.47876017926438 812.5468164794007,146.47876017926438 813.0461922596754,146.47876017926438 813.54556803995,146.47876017926438 814.0449438202247,146.47876017926438 814.5443196004994,146.47876017926438 815.043695380774,124.57594531500091 815.5430711610487,146.47876017926438 816.0424469413233,146.47876017926438 816.541822721598,146.47876017926438 817.0411985018727,146.47876017926438 817.5405742821473,146.47876017926438 818.039950062422,146.47876017926438 818.5393258426966,145.99736783547655 819.0387016229713,146.47876017926438 819.5380774032459,146.47876017926438 820.0374531835206,146.47876017926438 820.5368289637953,146.47876017926438 821.0362047440699,146.47876017926438 821.5355805243446,146.47876017926438 822.0349563046192,139.32192240726428 822.5343320848939,146.47876017926438 823.0337078651686,146.47876017926438 823.5330836454432,146.47876017926438 824.0324594257179,146.47876017926438 824.5318352059925,146.47876017926438 825.0312109862672,146.47876017926438 825.5305867665418,164.57886831564895 826.0299625468165,146.47876017926438 826.5293383270912,146.47876017926438 827.0287141073658,146.47876017926438 827.5280898876405,146.47876017926438 828.0274656679151,146.47876017926438 828.5268414481898,146.47876017926438 829.0262172284645,166.66039612270552 829.5255930087391,146.47876017926438 830.0249687890138,146.47876017926438 830.5243445692884,146.47876017926438 831.0237203495631,146.47876017926438 831.5230961298377,146.47876017926438 832.0224719101124,146.47876017926438 832.5218476903871,135.0214516040881 833.0212234706617,146.47876017926438 833.5205992509364,146.47876017926438 834.019975031211,146.47876017926438 834.5193508114857,146.47876017926438 835.0187265917604,146.47876017926438 835.518102372035,146.47876017926438 836.0174781523096,154.21917332271488 836.5168539325842,146.47876017926438 837.016229712859,146.47876017926438 837.5156054931335,146.47876017926438 838.0149812734082,146.47876017926438 838.5143570536829,146.47876017926438 839.0137328339575,146.47876017926438 839.5131086142322,177.92646530656862 840.0124843945068,146.47876017926438 840.5118601747815,146.47876017926438 841.0112359550562,146.47876017926438 841.5106117353308,146.47876017926438 842.0099875156055,146.47876017926438 842.5093632958801,146.47876017926438 843.0087390761548,164.62703194903145 843.5081148564294,146.47876017926438 844.0074906367041,146.47876017926438 844.5068664169788,146.47876017926438 845.0062421972534,146.47876017926438 845.5056179775281,146.47876017926438 846.0049937578027,146.47876017926438 846.5043695380774,163.3414972399847 847.0037453183521,146.47876017926438 847.5031210986267,146.47876017926438 848.0024968789014,146.47876017926438 848.501872659176,146.47876017926438 849.0012484394507,146.47876017926438 849.5006242197253,146.47876017926438 850.0,145.05441953794144 " fill="none" stroke="#3182ce" stroke-width="1.5"/><rect x="50" y="50" width="800" height="200" fill="none" stroke="#cbd5e0" stroke-width="1"/></svg>